<?xml version="1.0" encoding="utf-8" standalone="no"?>
<!DOCTYPE svg PUBLIC "-//W3C//DTD SVG 1.1//EN"
  "http://www.w3.org/Graphics/SVG/1.1/DTD/svg11.dtd">
<svg height="623.622047pt" version="1.1" viewBox="0 0 566.929134 623.622047" width="566.929134pt" xmlns="http://www.w3.org/2000/svg" xmlns:xlink="http://www.w3.org/1999/xlink">
 <metadata>
  <rdf:RDF xmlns:cc="http://creativecommons.org/ns#" xmlns:dc="http://purl.org/dc/elements/1.1/" xmlns:rdf="http://www.w3.org/1999/02/22-rdf-syntax-ns#">
   <cc:Work>
    <dc:type rdf:resource="http://purl.org/dc/dcmitype/StillImage"/>
    <dc:date>2022-05-26T19:06:14.197983</dc:date>
    <dc:format>image/svg+xml</dc:format>
    <dc:creator>
     <cc:Agent>
      <dc:title>Matplotlib v3.4.3, https://matplotlib.org/</dc:title>
     </cc:Agent>
    </dc:creator>
   </cc:Work>
  </rdf:RDF>
 </metadata>
 <defs>
  <style type="text/css">*{stroke-linecap:butt;stroke-linejoin:round;}</style>
 </defs>
 <g id="figure_1">
  <g id="patch_1">
   <path d="M 0 623.622047 
L 566.929134 623.622047 
L 566.929134 0 
L 0 0 
z
" style="fill:#ffffff;"/>
  </g>
  <g id="axes_1">
   <g id="patch_2">
    <path d="M 61.15274 574.343682 
L 519.611394 574.343682 
L 519.611394 51.56349 
L 61.15274 51.56349 
z
" style="fill:#dcdcdc;"/>
   </g>
   <g id="line2d_1">
    <path clip-path="url(#p564602a645)" d="M 290.97579 574.343682 
L 290.97579 51.56349 
" style="fill:none;stroke:#4169e1;stroke-dasharray:7.4,3.2;stroke-dashoffset:0;stroke-width:2;"/>
   </g>
   <g id="line2d_2">
    <path clip-path="url(#p564602a645)" d="M 266.068135 574.343682 
L 266.068135 51.56349 
" style="fill:none;stroke:#5f9ea0;stroke-dasharray:7.4,3.2;stroke-dashoffset:0;stroke-width:2;"/>
   </g>
   <g id="matplotlib.axis_1">
    <g id="xtick_1">
     <g id="line2d_3">
      <defs>
       <path d="M 0 0 
L 0 3.5 
" id="m50ec9b00fe" style="stroke:#000000;stroke-width:0.8;"/>
      </defs>
      <g>
       <use style="stroke:#000000;stroke-width:0.8;" x="88.034476" xlink:href="#m50ec9b00fe" y="574.343682"/>
      </g>
     </g>
     <g id="text_1">
      <!-- 3.72 -->
      <g transform="translate(72.465726 592.796182)scale(0.16 -0.16)">
       <defs>
        <path d="M 269 1209 
L 831 1284 
Q 928 806 1161 595 
Q 1394 384 1728 384 
Q 2125 384 2398 659 
Q 2672 934 2672 1341 
Q 2672 1728 2419 1979 
Q 2166 2231 1775 2231 
Q 1616 2231 1378 2169 
L 1441 2663 
Q 1497 2656 1531 2656 
Q 1891 2656 2178 2843 
Q 2466 3031 2466 3422 
Q 2466 3731 2256 3934 
Q 2047 4138 1716 4138 
Q 1388 4138 1169 3931 
Q 950 3725 888 3313 
L 325 3413 
Q 428 3978 793 4289 
Q 1159 4600 1703 4600 
Q 2078 4600 2393 4439 
Q 2709 4278 2876 4000 
Q 3044 3722 3044 3409 
Q 3044 3113 2884 2869 
Q 2725 2625 2413 2481 
Q 2819 2388 3044 2092 
Q 3269 1797 3269 1353 
Q 3269 753 2831 336 
Q 2394 -81 1725 -81 
Q 1122 -81 723 278 
Q 325 638 269 1209 
z
" id="ArialMT-33" transform="scale(0.015625)"/>
        <path d="M 581 0 
L 581 641 
L 1222 641 
L 1222 0 
L 581 0 
z
" id="ArialMT-2e" transform="scale(0.015625)"/>
        <path d="M 303 3981 
L 303 4522 
L 3269 4522 
L 3269 4084 
Q 2831 3619 2401 2847 
Q 1972 2075 1738 1259 
Q 1569 684 1522 0 
L 944 0 
Q 953 541 1156 1306 
Q 1359 2072 1739 2783 
Q 2119 3494 2547 3981 
L 303 3981 
z
" id="ArialMT-37" transform="scale(0.015625)"/>
        <path d="M 3222 541 
L 3222 0 
L 194 0 
Q 188 203 259 391 
Q 375 700 629 1000 
Q 884 1300 1366 1694 
Q 2113 2306 2375 2664 
Q 2638 3022 2638 3341 
Q 2638 3675 2398 3904 
Q 2159 4134 1775 4134 
Q 1369 4134 1125 3890 
Q 881 3647 878 3216 
L 300 3275 
Q 359 3922 746 4261 
Q 1134 4600 1788 4600 
Q 2447 4600 2831 4234 
Q 3216 3869 3216 3328 
Q 3216 3053 3103 2787 
Q 2991 2522 2730 2228 
Q 2469 1934 1863 1422 
Q 1356 997 1212 845 
Q 1069 694 975 541 
L 3222 541 
z
" id="ArialMT-32" transform="scale(0.015625)"/>
       </defs>
       <use xlink:href="#ArialMT-33"/>
       <use x="55.615234" xlink:href="#ArialMT-2e"/>
       <use x="83.398438" xlink:href="#ArialMT-37"/>
       <use x="139.013672" xlink:href="#ArialMT-32"/>
      </g>
     </g>
    </g>
    <g id="xtick_2">
     <g id="line2d_4">
      <g>
       <use style="stroke:#000000;stroke-width:0.8;" x="143.628427" xlink:href="#m50ec9b00fe" y="574.343682"/>
      </g>
     </g>
     <g id="text_2">
      <!-- 3.74 -->
      <g transform="translate(128.059677 592.796182)scale(0.16 -0.16)">
       <defs>
        <path d="M 2069 0 
L 2069 1097 
L 81 1097 
L 81 1613 
L 2172 4581 
L 2631 4581 
L 2631 1613 
L 3250 1613 
L 3250 1097 
L 2631 1097 
L 2631 0 
L 2069 0 
z
M 2069 1613 
L 2069 3678 
L 634 1613 
L 2069 1613 
z
" id="ArialMT-34" transform="scale(0.015625)"/>
       </defs>
       <use xlink:href="#ArialMT-33"/>
       <use x="55.615234" xlink:href="#ArialMT-2e"/>
       <use x="83.398438" xlink:href="#ArialMT-37"/>
       <use x="139.013672" xlink:href="#ArialMT-34"/>
      </g>
     </g>
    </g>
    <g id="xtick_3">
     <g id="line2d_5">
      <g>
       <use style="stroke:#000000;stroke-width:0.8;" x="199.222377" xlink:href="#m50ec9b00fe" y="574.343682"/>
      </g>
     </g>
     <g id="text_3">
      <!-- 3.76 -->
      <g transform="translate(183.653627 592.796182)scale(0.16 -0.16)">
       <defs>
        <path d="M 3184 3459 
L 2625 3416 
Q 2550 3747 2413 3897 
Q 2184 4138 1850 4138 
Q 1581 4138 1378 3988 
Q 1113 3794 959 3422 
Q 806 3050 800 2363 
Q 1003 2672 1297 2822 
Q 1591 2972 1913 2972 
Q 2475 2972 2870 2558 
Q 3266 2144 3266 1488 
Q 3266 1056 3080 686 
Q 2894 316 2569 119 
Q 2244 -78 1831 -78 
Q 1128 -78 684 439 
Q 241 956 241 2144 
Q 241 3472 731 4075 
Q 1159 4600 1884 4600 
Q 2425 4600 2770 4297 
Q 3116 3994 3184 3459 
z
M 888 1484 
Q 888 1194 1011 928 
Q 1134 663 1356 523 
Q 1578 384 1822 384 
Q 2178 384 2434 671 
Q 2691 959 2691 1453 
Q 2691 1928 2437 2201 
Q 2184 2475 1800 2475 
Q 1419 2475 1153 2201 
Q 888 1928 888 1484 
z
" id="ArialMT-36" transform="scale(0.015625)"/>
       </defs>
       <use xlink:href="#ArialMT-33"/>
       <use x="55.615234" xlink:href="#ArialMT-2e"/>
       <use x="83.398438" xlink:href="#ArialMT-37"/>
       <use x="139.013672" xlink:href="#ArialMT-36"/>
      </g>
     </g>
    </g>
    <g id="xtick_4">
     <g id="line2d_6">
      <g>
       <use style="stroke:#000000;stroke-width:0.8;" x="254.816327" xlink:href="#m50ec9b00fe" y="574.343682"/>
      </g>
     </g>
     <g id="text_4">
      <!-- 3.78 -->
      <g transform="translate(239.247577 592.796182)scale(0.16 -0.16)">
       <defs>
        <path d="M 1131 2484 
Q 781 2613 612 2850 
Q 444 3088 444 3419 
Q 444 3919 803 4259 
Q 1163 4600 1759 4600 
Q 2359 4600 2725 4251 
Q 3091 3903 3091 3403 
Q 3091 3084 2923 2848 
Q 2756 2613 2416 2484 
Q 2838 2347 3058 2040 
Q 3278 1734 3278 1309 
Q 3278 722 2862 322 
Q 2447 -78 1769 -78 
Q 1091 -78 675 323 
Q 259 725 259 1325 
Q 259 1772 486 2073 
Q 713 2375 1131 2484 
z
M 1019 3438 
Q 1019 3113 1228 2906 
Q 1438 2700 1772 2700 
Q 2097 2700 2305 2904 
Q 2513 3109 2513 3406 
Q 2513 3716 2298 3927 
Q 2084 4138 1766 4138 
Q 1444 4138 1231 3931 
Q 1019 3725 1019 3438 
z
M 838 1322 
Q 838 1081 952 856 
Q 1066 631 1291 507 
Q 1516 384 1775 384 
Q 2178 384 2440 643 
Q 2703 903 2703 1303 
Q 2703 1709 2433 1975 
Q 2163 2241 1756 2241 
Q 1359 2241 1098 1978 
Q 838 1716 838 1322 
z
" id="ArialMT-38" transform="scale(0.015625)"/>
       </defs>
       <use xlink:href="#ArialMT-33"/>
       <use x="55.615234" xlink:href="#ArialMT-2e"/>
       <use x="83.398438" xlink:href="#ArialMT-37"/>
       <use x="139.013672" xlink:href="#ArialMT-38"/>
      </g>
     </g>
    </g>
    <g id="xtick_5">
     <g id="line2d_7">
      <g>
       <use style="stroke:#000000;stroke-width:0.8;" x="310.410278" xlink:href="#m50ec9b00fe" y="574.343682"/>
      </g>
     </g>
     <g id="text_5">
      <!-- 3.80 -->
      <g transform="translate(294.841528 592.796182)scale(0.16 -0.16)">
       <defs>
        <path d="M 266 2259 
Q 266 3072 433 3567 
Q 600 4063 929 4331 
Q 1259 4600 1759 4600 
Q 2128 4600 2406 4451 
Q 2684 4303 2865 4023 
Q 3047 3744 3150 3342 
Q 3253 2941 3253 2259 
Q 3253 1453 3087 958 
Q 2922 463 2592 192 
Q 2263 -78 1759 -78 
Q 1097 -78 719 397 
Q 266 969 266 2259 
z
M 844 2259 
Q 844 1131 1108 757 
Q 1372 384 1759 384 
Q 2147 384 2411 759 
Q 2675 1134 2675 2259 
Q 2675 3391 2411 3762 
Q 2147 4134 1753 4134 
Q 1366 4134 1134 3806 
Q 844 3388 844 2259 
z
" id="ArialMT-30" transform="scale(0.015625)"/>
       </defs>
       <use xlink:href="#ArialMT-33"/>
       <use x="55.615234" xlink:href="#ArialMT-2e"/>
       <use x="83.398438" xlink:href="#ArialMT-38"/>
       <use x="139.013672" xlink:href="#ArialMT-30"/>
      </g>
     </g>
    </g>
    <g id="xtick_6">
     <g id="line2d_8">
      <g>
       <use style="stroke:#000000;stroke-width:0.8;" x="366.004228" xlink:href="#m50ec9b00fe" y="574.343682"/>
      </g>
     </g>
     <g id="text_6">
      <!-- 3.82 -->
      <g transform="translate(350.435478 592.796182)scale(0.16 -0.16)">
       <use xlink:href="#ArialMT-33"/>
       <use x="55.615234" xlink:href="#ArialMT-2e"/>
       <use x="83.398438" xlink:href="#ArialMT-38"/>
       <use x="139.013672" xlink:href="#ArialMT-32"/>
      </g>
     </g>
    </g>
    <g id="xtick_7">
     <g id="line2d_9">
      <g>
       <use style="stroke:#000000;stroke-width:0.8;" x="421.598178" xlink:href="#m50ec9b00fe" y="574.343682"/>
      </g>
     </g>
     <g id="text_7">
      <!-- 3.84 -->
      <g transform="translate(406.029428 592.796182)scale(0.16 -0.16)">
       <use xlink:href="#ArialMT-33"/>
       <use x="55.615234" xlink:href="#ArialMT-2e"/>
       <use x="83.398438" xlink:href="#ArialMT-38"/>
       <use x="139.013672" xlink:href="#ArialMT-34"/>
      </g>
     </g>
    </g>
    <g id="xtick_8">
     <g id="line2d_10">
      <g>
       <use style="stroke:#000000;stroke-width:0.8;" x="477.192129" xlink:href="#m50ec9b00fe" y="574.343682"/>
      </g>
     </g>
     <g id="text_8">
      <!-- 3.86 -->
      <g transform="translate(461.623379 592.796182)scale(0.16 -0.16)">
       <use xlink:href="#ArialMT-33"/>
       <use x="55.615234" xlink:href="#ArialMT-2e"/>
       <use x="83.398438" xlink:href="#ArialMT-38"/>
       <use x="139.013672" xlink:href="#ArialMT-36"/>
      </g>
     </g>
    </g>
    <g id="text_9">
     <!-- HRTS Line of Sight [m] -->
     <g transform="translate(178.092692 615.991495)scale(0.22 -0.22)">
      <defs>
       <path d="M 513 0 
L 513 4581 
L 1119 4581 
L 1119 2700 
L 3500 2700 
L 3500 4581 
L 4106 4581 
L 4106 0 
L 3500 0 
L 3500 2159 
L 1119 2159 
L 1119 0 
L 513 0 
z
" id="ArialMT-48" transform="scale(0.015625)"/>
       <path d="M 503 0 
L 503 4581 
L 2534 4581 
Q 3147 4581 3465 4457 
Q 3784 4334 3975 4021 
Q 4166 3709 4166 3331 
Q 4166 2844 3850 2509 
Q 3534 2175 2875 2084 
Q 3116 1969 3241 1856 
Q 3506 1613 3744 1247 
L 4541 0 
L 3778 0 
L 3172 953 
Q 2906 1366 2734 1584 
Q 2563 1803 2427 1890 
Q 2291 1978 2150 2013 
Q 2047 2034 1813 2034 
L 1109 2034 
L 1109 0 
L 503 0 
z
M 1109 2559 
L 2413 2559 
Q 2828 2559 3062 2645 
Q 3297 2731 3419 2920 
Q 3541 3109 3541 3331 
Q 3541 3656 3305 3865 
Q 3069 4075 2559 4075 
L 1109 4075 
L 1109 2559 
z
" id="ArialMT-52" transform="scale(0.015625)"/>
       <path d="M 1659 0 
L 1659 4041 
L 150 4041 
L 150 4581 
L 3781 4581 
L 3781 4041 
L 2266 4041 
L 2266 0 
L 1659 0 
z
" id="ArialMT-54" transform="scale(0.015625)"/>
       <path d="M 288 1472 
L 859 1522 
Q 900 1178 1048 958 
Q 1197 738 1509 602 
Q 1822 466 2213 466 
Q 2559 466 2825 569 
Q 3091 672 3220 851 
Q 3350 1031 3350 1244 
Q 3350 1459 3225 1620 
Q 3100 1781 2813 1891 
Q 2628 1963 1997 2114 
Q 1366 2266 1113 2400 
Q 784 2572 623 2826 
Q 463 3081 463 3397 
Q 463 3744 659 4045 
Q 856 4347 1234 4503 
Q 1613 4659 2075 4659 
Q 2584 4659 2973 4495 
Q 3363 4331 3572 4012 
Q 3781 3694 3797 3291 
L 3216 3247 
Q 3169 3681 2898 3903 
Q 2628 4125 2100 4125 
Q 1550 4125 1298 3923 
Q 1047 3722 1047 3438 
Q 1047 3191 1225 3031 
Q 1400 2872 2139 2705 
Q 2878 2538 3153 2413 
Q 3553 2228 3743 1945 
Q 3934 1663 3934 1294 
Q 3934 928 3725 604 
Q 3516 281 3123 101 
Q 2731 -78 2241 -78 
Q 1619 -78 1198 103 
Q 778 284 539 648 
Q 300 1013 288 1472 
z
" id="ArialMT-53" transform="scale(0.015625)"/>
       <path id="ArialMT-20" transform="scale(0.015625)"/>
       <path d="M 469 0 
L 469 4581 
L 1075 4581 
L 1075 541 
L 3331 541 
L 3331 0 
L 469 0 
z
" id="ArialMT-4c" transform="scale(0.015625)"/>
       <path d="M 425 3934 
L 425 4581 
L 988 4581 
L 988 3934 
L 425 3934 
z
M 425 0 
L 425 3319 
L 988 3319 
L 988 0 
L 425 0 
z
" id="ArialMT-69" transform="scale(0.015625)"/>
       <path d="M 422 0 
L 422 3319 
L 928 3319 
L 928 2847 
Q 1294 3394 1984 3394 
Q 2284 3394 2536 3286 
Q 2788 3178 2913 3003 
Q 3038 2828 3088 2588 
Q 3119 2431 3119 2041 
L 3119 0 
L 2556 0 
L 2556 2019 
Q 2556 2363 2490 2533 
Q 2425 2703 2258 2804 
Q 2091 2906 1866 2906 
Q 1506 2906 1245 2678 
Q 984 2450 984 1813 
L 984 0 
L 422 0 
z
" id="ArialMT-6e" transform="scale(0.015625)"/>
       <path d="M 2694 1069 
L 3275 997 
Q 3138 488 2766 206 
Q 2394 -75 1816 -75 
Q 1088 -75 661 373 
Q 234 822 234 1631 
Q 234 2469 665 2931 
Q 1097 3394 1784 3394 
Q 2450 3394 2872 2941 
Q 3294 2488 3294 1666 
Q 3294 1616 3291 1516 
L 816 1516 
Q 847 969 1125 678 
Q 1403 388 1819 388 
Q 2128 388 2347 550 
Q 2566 713 2694 1069 
z
M 847 1978 
L 2700 1978 
Q 2663 2397 2488 2606 
Q 2219 2931 1791 2931 
Q 1403 2931 1139 2672 
Q 875 2413 847 1978 
z
" id="ArialMT-65" transform="scale(0.015625)"/>
       <path d="M 213 1659 
Q 213 2581 725 3025 
Q 1153 3394 1769 3394 
Q 2453 3394 2887 2945 
Q 3322 2497 3322 1706 
Q 3322 1066 3130 698 
Q 2938 331 2570 128 
Q 2203 -75 1769 -75 
Q 1072 -75 642 372 
Q 213 819 213 1659 
z
M 791 1659 
Q 791 1022 1069 705 
Q 1347 388 1769 388 
Q 2188 388 2466 706 
Q 2744 1025 2744 1678 
Q 2744 2294 2464 2611 
Q 2184 2928 1769 2928 
Q 1347 2928 1069 2612 
Q 791 2297 791 1659 
z
" id="ArialMT-6f" transform="scale(0.015625)"/>
       <path d="M 556 0 
L 556 2881 
L 59 2881 
L 59 3319 
L 556 3319 
L 556 3672 
Q 556 4006 616 4169 
Q 697 4388 901 4523 
Q 1106 4659 1475 4659 
Q 1713 4659 2000 4603 
L 1916 4113 
Q 1741 4144 1584 4144 
Q 1328 4144 1222 4034 
Q 1116 3925 1116 3625 
L 1116 3319 
L 1763 3319 
L 1763 2881 
L 1116 2881 
L 1116 0 
L 556 0 
z
" id="ArialMT-66" transform="scale(0.015625)"/>
       <path d="M 319 -275 
L 866 -356 
Q 900 -609 1056 -725 
Q 1266 -881 1628 -881 
Q 2019 -881 2231 -725 
Q 2444 -569 2519 -288 
Q 2563 -116 2559 434 
Q 2191 0 1641 0 
Q 956 0 581 494 
Q 206 988 206 1678 
Q 206 2153 378 2554 
Q 550 2956 876 3175 
Q 1203 3394 1644 3394 
Q 2231 3394 2613 2919 
L 2613 3319 
L 3131 3319 
L 3131 450 
Q 3131 -325 2973 -648 
Q 2816 -972 2473 -1159 
Q 2131 -1347 1631 -1347 
Q 1038 -1347 672 -1080 
Q 306 -813 319 -275 
z
M 784 1719 
Q 784 1066 1043 766 
Q 1303 466 1694 466 
Q 2081 466 2343 764 
Q 2606 1063 2606 1700 
Q 2606 2309 2336 2618 
Q 2066 2928 1684 2928 
Q 1309 2928 1046 2623 
Q 784 2319 784 1719 
z
" id="ArialMT-67" transform="scale(0.015625)"/>
       <path d="M 422 0 
L 422 4581 
L 984 4581 
L 984 2938 
Q 1378 3394 1978 3394 
Q 2347 3394 2619 3248 
Q 2891 3103 3008 2847 
Q 3125 2591 3125 2103 
L 3125 0 
L 2563 0 
L 2563 2103 
Q 2563 2525 2380 2717 
Q 2197 2909 1863 2909 
Q 1613 2909 1392 2779 
Q 1172 2650 1078 2428 
Q 984 2206 984 1816 
L 984 0 
L 422 0 
z
" id="ArialMT-68" transform="scale(0.015625)"/>
       <path d="M 1650 503 
L 1731 6 
Q 1494 -44 1306 -44 
Q 1000 -44 831 53 
Q 663 150 594 308 
Q 525 466 525 972 
L 525 2881 
L 113 2881 
L 113 3319 
L 525 3319 
L 525 4141 
L 1084 4478 
L 1084 3319 
L 1650 3319 
L 1650 2881 
L 1084 2881 
L 1084 941 
Q 1084 700 1114 631 
Q 1144 563 1211 522 
Q 1278 481 1403 481 
Q 1497 481 1650 503 
z
" id="ArialMT-74" transform="scale(0.015625)"/>
       <path d="M 434 -1272 
L 434 4581 
L 1675 4581 
L 1675 4116 
L 997 4116 
L 997 -806 
L 1675 -806 
L 1675 -1272 
L 434 -1272 
z
" id="ArialMT-5b" transform="scale(0.015625)"/>
       <path d="M 422 0 
L 422 3319 
L 925 3319 
L 925 2853 
Q 1081 3097 1340 3245 
Q 1600 3394 1931 3394 
Q 2300 3394 2536 3241 
Q 2772 3088 2869 2813 
Q 3263 3394 3894 3394 
Q 4388 3394 4653 3120 
Q 4919 2847 4919 2278 
L 4919 0 
L 4359 0 
L 4359 2091 
Q 4359 2428 4304 2576 
Q 4250 2725 4106 2815 
Q 3963 2906 3769 2906 
Q 3419 2906 3187 2673 
Q 2956 2441 2956 1928 
L 2956 0 
L 2394 0 
L 2394 2156 
Q 2394 2531 2256 2718 
Q 2119 2906 1806 2906 
Q 1569 2906 1367 2781 
Q 1166 2656 1075 2415 
Q 984 2175 984 1722 
L 984 0 
L 422 0 
z
" id="ArialMT-6d" transform="scale(0.015625)"/>
       <path d="M 1363 -1272 
L 122 -1272 
L 122 -806 
L 800 -806 
L 800 4116 
L 122 4116 
L 122 4581 
L 1363 4581 
L 1363 -1272 
z
" id="ArialMT-5d" transform="scale(0.015625)"/>
      </defs>
      <use xlink:href="#ArialMT-48"/>
      <use x="72.216797" xlink:href="#ArialMT-52"/>
      <use x="142.683594" xlink:href="#ArialMT-54"/>
      <use x="203.767578" xlink:href="#ArialMT-53"/>
      <use x="270.466797" xlink:href="#ArialMT-20"/>
      <use x="298.25" xlink:href="#ArialMT-4c"/>
      <use x="353.865234" xlink:href="#ArialMT-69"/>
      <use x="376.082031" xlink:href="#ArialMT-6e"/>
      <use x="431.697266" xlink:href="#ArialMT-65"/>
      <use x="487.3125" xlink:href="#ArialMT-20"/>
      <use x="515.095703" xlink:href="#ArialMT-6f"/>
      <use x="570.710938" xlink:href="#ArialMT-66"/>
      <use x="598.494141" xlink:href="#ArialMT-20"/>
      <use x="626.277344" xlink:href="#ArialMT-53"/>
      <use x="692.976562" xlink:href="#ArialMT-69"/>
      <use x="715.193359" xlink:href="#ArialMT-67"/>
      <use x="770.808594" xlink:href="#ArialMT-68"/>
      <use x="826.423828" xlink:href="#ArialMT-74"/>
      <use x="854.207031" xlink:href="#ArialMT-20"/>
      <use x="881.990234" xlink:href="#ArialMT-5b"/>
      <use x="909.773438" xlink:href="#ArialMT-6d"/>
      <use x="993.074219" xlink:href="#ArialMT-5d"/>
     </g>
    </g>
   </g>
   <g id="matplotlib.axis_2">
    <g id="ytick_1">
     <g id="line2d_11">
      <defs>
       <path d="M 0 0 
L -3.5 0 
" id="m060e6b9965" style="stroke:#000000;stroke-width:0.8;"/>
      </defs>
      <g>
       <use style="stroke:#000000;stroke-width:0.8;" x="61.15274" xlink:href="#m060e6b9965" y="543.591906"/>
      </g>
     </g>
     <g id="text_10">
      <!-- 0 -->
      <g transform="translate(45.25524 549.318156)scale(0.16 -0.16)">
       <use xlink:href="#ArialMT-30"/>
      </g>
     </g>
    </g>
    <g id="ytick_2">
     <g id="line2d_12">
      <g>
       <use style="stroke:#000000;stroke-width:0.8;" x="61.15274" xlink:href="#m060e6b9965" y="482.088354"/>
      </g>
     </g>
     <g id="text_11">
      <!-- 100 -->
      <g transform="translate(27.46024 487.814604)scale(0.16 -0.16)">
       <defs>
        <path d="M 2384 0 
L 1822 0 
L 1822 3584 
Q 1619 3391 1289 3197 
Q 959 3003 697 2906 
L 697 3450 
Q 1169 3672 1522 3987 
Q 1875 4303 2022 4600 
L 2384 4600 
L 2384 0 
z
" id="ArialMT-31" transform="scale(0.015625)"/>
       </defs>
       <use xlink:href="#ArialMT-31"/>
       <use x="55.615234" xlink:href="#ArialMT-30"/>
       <use x="111.230469" xlink:href="#ArialMT-30"/>
      </g>
     </g>
    </g>
    <g id="ytick_3">
     <g id="line2d_13">
      <g>
       <use style="stroke:#000000;stroke-width:0.8;" x="61.15274" xlink:href="#m060e6b9965" y="420.584802"/>
      </g>
     </g>
     <g id="text_12">
      <!-- 200 -->
      <g transform="translate(27.46024 426.311052)scale(0.16 -0.16)">
       <use xlink:href="#ArialMT-32"/>
       <use x="55.615234" xlink:href="#ArialMT-30"/>
       <use x="111.230469" xlink:href="#ArialMT-30"/>
      </g>
     </g>
    </g>
    <g id="ytick_4">
     <g id="line2d_14">
      <g>
       <use style="stroke:#000000;stroke-width:0.8;" x="61.15274" xlink:href="#m060e6b9965" y="359.08125"/>
      </g>
     </g>
     <g id="text_13">
      <!-- 300 -->
      <g transform="translate(27.46024 364.8075)scale(0.16 -0.16)">
       <use xlink:href="#ArialMT-33"/>
       <use x="55.615234" xlink:href="#ArialMT-30"/>
       <use x="111.230469" xlink:href="#ArialMT-30"/>
      </g>
     </g>
    </g>
    <g id="ytick_5">
     <g id="line2d_15">
      <g>
       <use style="stroke:#000000;stroke-width:0.8;" x="61.15274" xlink:href="#m060e6b9965" y="297.577698"/>
      </g>
     </g>
     <g id="text_14">
      <!-- 400 -->
      <g transform="translate(27.46024 303.303948)scale(0.16 -0.16)">
       <use xlink:href="#ArialMT-34"/>
       <use x="55.615234" xlink:href="#ArialMT-30"/>
       <use x="111.230469" xlink:href="#ArialMT-30"/>
      </g>
     </g>
    </g>
    <g id="ytick_6">
     <g id="line2d_16">
      <g>
       <use style="stroke:#000000;stroke-width:0.8;" x="61.15274" xlink:href="#m060e6b9965" y="236.074146"/>
      </g>
     </g>
     <g id="text_15">
      <!-- 500 -->
      <g transform="translate(27.46024 241.800396)scale(0.16 -0.16)">
       <defs>
        <path d="M 266 1200 
L 856 1250 
Q 922 819 1161 601 
Q 1400 384 1738 384 
Q 2144 384 2425 690 
Q 2706 997 2706 1503 
Q 2706 1984 2436 2262 
Q 2166 2541 1728 2541 
Q 1456 2541 1237 2417 
Q 1019 2294 894 2097 
L 366 2166 
L 809 4519 
L 3088 4519 
L 3088 3981 
L 1259 3981 
L 1013 2750 
Q 1425 3038 1878 3038 
Q 2478 3038 2890 2622 
Q 3303 2206 3303 1553 
Q 3303 931 2941 478 
Q 2500 -78 1738 -78 
Q 1113 -78 717 272 
Q 322 622 266 1200 
z
" id="ArialMT-35" transform="scale(0.015625)"/>
       </defs>
       <use xlink:href="#ArialMT-35"/>
       <use x="55.615234" xlink:href="#ArialMT-30"/>
       <use x="111.230469" xlink:href="#ArialMT-30"/>
      </g>
     </g>
    </g>
    <g id="ytick_7">
     <g id="line2d_17">
      <g>
       <use style="stroke:#000000;stroke-width:0.8;" x="61.15274" xlink:href="#m060e6b9965" y="174.570594"/>
      </g>
     </g>
     <g id="text_16">
      <!-- 600 -->
      <g transform="translate(27.46024 180.296844)scale(0.16 -0.16)">
       <use xlink:href="#ArialMT-36"/>
       <use x="55.615234" xlink:href="#ArialMT-30"/>
       <use x="111.230469" xlink:href="#ArialMT-30"/>
      </g>
     </g>
    </g>
    <g id="ytick_8">
     <g id="line2d_18">
      <g>
       <use style="stroke:#000000;stroke-width:0.8;" x="61.15274" xlink:href="#m060e6b9965" y="113.067042"/>
      </g>
     </g>
     <g id="text_17">
      <!-- 700 -->
      <g transform="translate(27.46024 118.793292)scale(0.16 -0.16)">
       <use xlink:href="#ArialMT-37"/>
       <use x="55.615234" xlink:href="#ArialMT-30"/>
       <use x="111.230469" xlink:href="#ArialMT-30"/>
      </g>
     </g>
    </g>
    <g id="ytick_9">
     <g id="line2d_19">
      <g>
       <use style="stroke:#000000;stroke-width:0.8;" x="61.15274" xlink:href="#m060e6b9965" y="51.56349"/>
      </g>
     </g>
     <g id="text_18">
      <!-- 800 -->
      <g transform="translate(27.46024 57.28974)scale(0.16 -0.16)">
       <use xlink:href="#ArialMT-38"/>
       <use x="55.615234" xlink:href="#ArialMT-30"/>
       <use x="111.230469" xlink:href="#ArialMT-30"/>
      </g>
     </g>
    </g>
    <g id="text_19">
     <!-- $T_e$ [ eV ] -->
     <g transform="translate(19.06024 353.543586)rotate(-90)scale(0.22 -0.22)">
      <defs>
       <path d="M 378 4666 
L 4325 4666 
L 4225 4134 
L 2559 4134 
L 1759 0 
L 1125 0 
L 1925 4134 
L 275 4134 
L 378 4666 
z
" id="DejaVuSans-Oblique-54" transform="scale(0.015625)"/>
       <path d="M 3078 2063 
Q 3088 2113 3092 2166 
Q 3097 2219 3097 2272 
Q 3097 2653 2873 2875 
Q 2650 3097 2266 3097 
Q 1838 3097 1509 2826 
Q 1181 2556 1013 2059 
L 3078 2063 
z
M 3578 1613 
L 903 1613 
Q 884 1494 878 1425 
Q 872 1356 872 1306 
Q 872 872 1139 634 
Q 1406 397 1894 397 
Q 2269 397 2603 481 
Q 2938 566 3225 728 
L 3116 159 
Q 2806 34 2476 -28 
Q 2147 -91 1806 -91 
Q 1078 -91 686 257 
Q 294 606 294 1247 
Q 294 1794 489 2264 
Q 684 2734 1063 3103 
Q 1306 3334 1642 3459 
Q 1978 3584 2356 3584 
Q 2950 3584 3301 3228 
Q 3653 2872 3653 2272 
Q 3653 2128 3634 1964 
Q 3616 1800 3578 1613 
z
" id="DejaVuSans-Oblique-65" transform="scale(0.015625)"/>
       <path d="M 1803 0 
L 28 4581 
L 684 4581 
L 1875 1253 
Q 2019 853 2116 503 
Q 2222 878 2363 1253 
L 3600 4581 
L 4219 4581 
L 2425 0 
L 1803 0 
z
" id="ArialMT-56" transform="scale(0.015625)"/>
      </defs>
      <use transform="translate(0 0.09375)" xlink:href="#DejaVuSans-Oblique-54"/>
      <use transform="translate(61.083984 -16.3125)scale(0.7)" xlink:href="#DejaVuSans-Oblique-65"/>
      <use transform="translate(106.884766 0.09375)" xlink:href="#ArialMT-20"/>
      <use transform="translate(134.667969 0.09375)" xlink:href="#ArialMT-5b"/>
      <use transform="translate(162.451172 0.09375)" xlink:href="#ArialMT-20"/>
      <use transform="translate(190.234375 0.09375)" xlink:href="#ArialMT-65"/>
      <use transform="translate(245.849609 0.09375)" xlink:href="#ArialMT-56"/>
      <use transform="translate(312.548828 0.09375)" xlink:href="#ArialMT-20"/>
      <use transform="translate(340.332031 0.09375)" xlink:href="#ArialMT-5d"/>
     </g>
    </g>
   </g>
   <g id="line2d_20">
    <path clip-path="url(#p564602a645)" d="M 61.15274 482.088354 
L 519.611394 482.088354 
" style="fill:none;stroke:#000000;stroke-dasharray:11.1,4.8;stroke-dashoffset:0;stroke-width:3;"/>
   </g>
   <g id="patch_3">
    <path d="M 61.15274 574.343682 
L 61.15274 51.56349 
" style="fill:none;stroke:#000000;stroke-linecap:square;stroke-linejoin:miter;stroke-width:0.8;"/>
   </g>
   <g id="patch_4">
    <path d="M 519.611394 574.343682 
L 519.611394 51.56349 
" style="fill:none;stroke:#000000;stroke-linecap:square;stroke-linejoin:miter;stroke-width:0.8;"/>
   </g>
   <g id="patch_5">
    <path d="M 61.15274 574.343682 
L 519.611394 574.343682 
" style="fill:none;stroke:#000000;stroke-linecap:square;stroke-linejoin:miter;stroke-width:0.8;"/>
   </g>
   <g id="patch_6">
    <path d="M 61.15274 51.56349 
L 519.611394 51.56349 
" style="fill:none;stroke:#000000;stroke-linecap:square;stroke-linejoin:miter;stroke-width:0.8;"/>
   </g>
   <g id="text_20">
    <!-- $T_{e, sep} \approx 100$ [eV] -->
    <g transform="translate(88.034476 472.088354)scale(0.16 -0.16)">
     <defs>
      <path d="M 750 794 
L 1409 794 
L 1409 256 
L 897 -744 
L 494 -744 
L 750 256 
L 750 794 
z
" id="DejaVuSans-2c" transform="scale(0.015625)"/>
      <path d="M 3200 3397 
L 3091 2853 
Q 2863 2978 2609 3040 
Q 2356 3103 2088 3103 
Q 1634 3103 1373 2948 
Q 1113 2794 1113 2528 
Q 1113 2219 1719 2053 
Q 1766 2041 1788 2034 
L 1972 1978 
Q 2547 1819 2739 1644 
Q 2931 1469 2931 1166 
Q 2931 609 2489 259 
Q 2047 -91 1331 -91 
Q 1053 -91 747 -37 
Q 441 16 72 128 
L 184 722 
Q 500 559 806 475 
Q 1113 391 1394 391 
Q 1816 391 2080 572 
Q 2344 753 2344 1031 
Q 2344 1331 1650 1516 
L 1591 1531 
L 1394 1581 
Q 956 1697 753 1886 
Q 550 2075 550 2369 
Q 550 2928 970 3256 
Q 1391 3584 2113 3584 
Q 2397 3584 2667 3537 
Q 2938 3491 3200 3397 
z
" id="DejaVuSans-Oblique-73" transform="scale(0.015625)"/>
      <path d="M 3175 2156 
Q 3175 2616 2975 2859 
Q 2775 3103 2400 3103 
Q 2144 3103 1911 2972 
Q 1678 2841 1497 2591 
Q 1319 2344 1212 1994 
Q 1106 1644 1106 1300 
Q 1106 863 1306 627 
Q 1506 391 1875 391 
Q 2147 391 2380 519 
Q 2613 647 2778 891 
Q 2956 1147 3065 1494 
Q 3175 1841 3175 2156 
z
M 1394 2969 
Q 1625 3272 1939 3428 
Q 2253 3584 2638 3584 
Q 3175 3584 3472 3232 
Q 3769 2881 3769 2247 
Q 3769 1728 3584 1258 
Q 3400 788 3053 416 
Q 2822 169 2531 39 
Q 2241 -91 1919 -91 
Q 1547 -91 1294 64 
Q 1041 219 916 525 
L 556 -1331 
L -19 -1331 
L 922 3500 
L 1497 3500 
L 1394 2969 
z
" id="DejaVuSans-Oblique-70" transform="scale(0.015625)"/>
      <path d="M 4684 1947 
L 4684 1388 
Q 4356 1144 4076 1036 
Q 3797 928 3494 928 
Q 3150 928 2694 1113 
Q 2663 1125 2641 1134 
Q 2622 1141 2575 1159 
Q 2091 1350 1797 1350 
Q 1522 1350 1253 1231 
Q 984 1113 678 850 
L 678 1409 
Q 1006 1653 1286 1761 
Q 1566 1869 1869 1869 
Q 2213 1869 2672 1684 
Q 2706 1669 2722 1663 
Q 2741 1656 2788 1638 
Q 3272 1447 3566 1447 
Q 3834 1447 4098 1564 
Q 4363 1681 4684 1947 
z
M 4684 3163 
L 4684 2606 
Q 4356 2359 4076 2251 
Q 3797 2144 3494 2144 
Q 3150 2144 2694 2328 
Q 2663 2341 2641 2350 
Q 2622 2356 2575 2375 
Q 2091 2566 1797 2566 
Q 1522 2566 1253 2447 
Q 984 2328 678 2069 
L 678 2625 
Q 1006 2869 1286 2976 
Q 1566 3084 1869 3084 
Q 2213 3084 2672 2900 
Q 2703 2888 2719 2881 
Q 2741 2872 2788 2853 
Q 3272 2663 3566 2663 
Q 3834 2663 4098 2780 
Q 4363 2897 4684 3163 
z
" id="DejaVuSans-2248" transform="scale(0.015625)"/>
      <path d="M 794 531 
L 1825 531 
L 1825 4091 
L 703 3866 
L 703 4441 
L 1819 4666 
L 2450 4666 
L 2450 531 
L 3481 531 
L 3481 0 
L 794 0 
L 794 531 
z
" id="DejaVuSans-31" transform="scale(0.015625)"/>
      <path d="M 2034 4250 
Q 1547 4250 1301 3770 
Q 1056 3291 1056 2328 
Q 1056 1369 1301 889 
Q 1547 409 2034 409 
Q 2525 409 2770 889 
Q 3016 1369 3016 2328 
Q 3016 3291 2770 3770 
Q 2525 4250 2034 4250 
z
M 2034 4750 
Q 2819 4750 3233 4129 
Q 3647 3509 3647 2328 
Q 3647 1150 3233 529 
Q 2819 -91 2034 -91 
Q 1250 -91 836 529 
Q 422 1150 422 2328 
Q 422 3509 836 4129 
Q 1250 4750 2034 4750 
z
" id="DejaVuSans-30" transform="scale(0.015625)"/>
     </defs>
     <use transform="translate(0 0.78125)" xlink:href="#DejaVuSans-Oblique-54"/>
     <use transform="translate(61.083984 -15.625)scale(0.7)" xlink:href="#DejaVuSans-Oblique-65"/>
     <use transform="translate(104.150391 -15.625)scale(0.7)" xlink:href="#DejaVuSans-2c"/>
     <use transform="translate(140.039062 -15.625)scale(0.7)" xlink:href="#DejaVuSans-Oblique-73"/>
     <use transform="translate(176.508789 -15.625)scale(0.7)" xlink:href="#DejaVuSans-Oblique-65"/>
     <use transform="translate(219.575195 -15.625)scale(0.7)" xlink:href="#DejaVuSans-Oblique-70"/>
     <use transform="translate(286.225586 0.78125)" xlink:href="#DejaVuSans-2248"/>
     <use transform="translate(389.49707 0.78125)" xlink:href="#DejaVuSans-31"/>
     <use transform="translate(453.120117 0.78125)" xlink:href="#DejaVuSans-30"/>
     <use transform="translate(516.743164 0.78125)" xlink:href="#DejaVuSans-30"/>
     <use transform="translate(580.366211 0.78125)" xlink:href="#ArialMT-20"/>
     <use transform="translate(608.149414 0.78125)" xlink:href="#ArialMT-5b"/>
     <use transform="translate(635.932617 0.78125)" xlink:href="#ArialMT-65"/>
     <use transform="translate(691.547852 0.78125)" xlink:href="#ArialMT-56"/>
     <use transform="translate(758.24707 0.78125)" xlink:href="#ArialMT-5d"/>
    </g>
   </g>
   <g id="text_21">
    <!-- Pulse 81836 -->
    <g transform="translate(223.665817 20.17899)scale(0.24 -0.24)">
     <defs>
      <path d="M 494 0 
L 494 4581 
L 2222 4581 
Q 2678 4581 2919 4538 
Q 3256 4481 3484 4323 
Q 3713 4166 3852 3881 
Q 3991 3597 3991 3256 
Q 3991 2672 3619 2267 
Q 3247 1863 2275 1863 
L 1100 1863 
L 1100 0 
L 494 0 
z
M 1100 2403 
L 2284 2403 
Q 2872 2403 3119 2622 
Q 3366 2841 3366 3238 
Q 3366 3525 3220 3729 
Q 3075 3934 2838 4000 
Q 2684 4041 2272 4041 
L 1100 4041 
L 1100 2403 
z
" id="ArialMT-50" transform="scale(0.015625)"/>
      <path d="M 2597 0 
L 2597 488 
Q 2209 -75 1544 -75 
Q 1250 -75 995 37 
Q 741 150 617 320 
Q 494 491 444 738 
Q 409 903 409 1263 
L 409 3319 
L 972 3319 
L 972 1478 
Q 972 1038 1006 884 
Q 1059 663 1231 536 
Q 1403 409 1656 409 
Q 1909 409 2131 539 
Q 2353 669 2445 892 
Q 2538 1116 2538 1541 
L 2538 3319 
L 3100 3319 
L 3100 0 
L 2597 0 
z
" id="ArialMT-75" transform="scale(0.015625)"/>
      <path d="M 409 0 
L 409 4581 
L 972 4581 
L 972 0 
L 409 0 
z
" id="ArialMT-6c" transform="scale(0.015625)"/>
      <path d="M 197 991 
L 753 1078 
Q 800 744 1014 566 
Q 1228 388 1613 388 
Q 2000 388 2187 545 
Q 2375 703 2375 916 
Q 2375 1106 2209 1216 
Q 2094 1291 1634 1406 
Q 1016 1563 777 1677 
Q 538 1791 414 1992 
Q 291 2194 291 2438 
Q 291 2659 392 2848 
Q 494 3038 669 3163 
Q 800 3259 1026 3326 
Q 1253 3394 1513 3394 
Q 1903 3394 2198 3281 
Q 2494 3169 2634 2976 
Q 2775 2784 2828 2463 
L 2278 2388 
Q 2241 2644 2061 2787 
Q 1881 2931 1553 2931 
Q 1166 2931 1000 2803 
Q 834 2675 834 2503 
Q 834 2394 903 2306 
Q 972 2216 1119 2156 
Q 1203 2125 1616 2013 
Q 2213 1853 2448 1751 
Q 2684 1650 2818 1456 
Q 2953 1263 2953 975 
Q 2953 694 2789 445 
Q 2625 197 2315 61 
Q 2006 -75 1616 -75 
Q 969 -75 630 194 
Q 291 463 197 991 
z
" id="ArialMT-73" transform="scale(0.015625)"/>
     </defs>
     <use xlink:href="#ArialMT-50"/>
     <use x="66.699219" xlink:href="#ArialMT-75"/>
     <use x="122.314453" xlink:href="#ArialMT-6c"/>
     <use x="144.53125" xlink:href="#ArialMT-73"/>
     <use x="194.53125" xlink:href="#ArialMT-65"/>
     <use x="250.146484" xlink:href="#ArialMT-20"/>
     <use x="277.929688" xlink:href="#ArialMT-38"/>
     <use x="333.544922" xlink:href="#ArialMT-31"/>
     <use x="389.160156" xlink:href="#ArialMT-38"/>
     <use x="444.775391" xlink:href="#ArialMT-33"/>
     <use x="500.390625" xlink:href="#ArialMT-36"/>
    </g>
    <!-- Pre ELM % = 83.4, Post ELM % = 1.12 -->
    <g transform="translate(82.948942 45.56349)scale(0.24 -0.24)">
     <defs>
      <path d="M 416 0 
L 416 3319 
L 922 3319 
L 922 2816 
Q 1116 3169 1280 3281 
Q 1444 3394 1641 3394 
Q 1925 3394 2219 3213 
L 2025 2691 
Q 1819 2813 1613 2813 
Q 1428 2813 1281 2702 
Q 1134 2591 1072 2394 
Q 978 2094 978 1738 
L 978 0 
L 416 0 
z
" id="ArialMT-72" transform="scale(0.015625)"/>
      <path d="M 506 0 
L 506 4581 
L 3819 4581 
L 3819 4041 
L 1113 4041 
L 1113 2638 
L 3647 2638 
L 3647 2100 
L 1113 2100 
L 1113 541 
L 3925 541 
L 3925 0 
L 506 0 
z
" id="ArialMT-45" transform="scale(0.015625)"/>
      <path d="M 475 0 
L 475 4581 
L 1388 4581 
L 2472 1338 
Q 2622 884 2691 659 
Q 2769 909 2934 1394 
L 4031 4581 
L 4847 4581 
L 4847 0 
L 4263 0 
L 4263 3834 
L 2931 0 
L 2384 0 
L 1059 3900 
L 1059 0 
L 475 0 
z
" id="ArialMT-4d" transform="scale(0.015625)"/>
      <path d="M 372 3481 
Q 372 3972 619 4315 
Q 866 4659 1334 4659 
Q 1766 4659 2048 4351 
Q 2331 4044 2331 3447 
Q 2331 2866 2045 2552 
Q 1759 2238 1341 2238 
Q 925 2238 648 2547 
Q 372 2856 372 3481 
z
M 1350 4272 
Q 1141 4272 1002 4090 
Q 863 3909 863 3425 
Q 863 2984 1003 2804 
Q 1144 2625 1350 2625 
Q 1563 2625 1702 2806 
Q 1841 2988 1841 3469 
Q 1841 3913 1700 4092 
Q 1559 4272 1350 4272 
z
M 1353 -169 
L 3859 4659 
L 4316 4659 
L 1819 -169 
L 1353 -169 
z
M 3334 1075 
Q 3334 1569 3581 1911 
Q 3828 2253 4300 2253 
Q 4731 2253 5014 1945 
Q 5297 1638 5297 1041 
Q 5297 459 5011 145 
Q 4725 -169 4303 -169 
Q 3888 -169 3611 142 
Q 3334 453 3334 1075 
z
M 4316 1866 
Q 4103 1866 3964 1684 
Q 3825 1503 3825 1019 
Q 3825 581 3965 400 
Q 4106 219 4313 219 
Q 4528 219 4667 400 
Q 4806 581 4806 1063 
Q 4806 1506 4665 1686 
Q 4525 1866 4316 1866 
z
" id="ArialMT-25" transform="scale(0.015625)"/>
      <path d="M 3381 2694 
L 356 2694 
L 356 3219 
L 3381 3219 
L 3381 2694 
z
M 3381 1303 
L 356 1303 
L 356 1828 
L 3381 1828 
L 3381 1303 
z
" id="ArialMT-3d" transform="scale(0.015625)"/>
      <path d="M 569 0 
L 569 641 
L 1209 641 
L 1209 0 
Q 1209 -353 1084 -570 
Q 959 -788 688 -906 
L 531 -666 
Q 709 -588 793 -436 
Q 878 -284 888 0 
L 569 0 
z
" id="ArialMT-2c" transform="scale(0.015625)"/>
     </defs>
     <use xlink:href="#ArialMT-50"/>
     <use x="66.699219" xlink:href="#ArialMT-72"/>
     <use x="100" xlink:href="#ArialMT-65"/>
     <use x="155.615234" xlink:href="#ArialMT-20"/>
     <use x="183.398438" xlink:href="#ArialMT-45"/>
     <use x="250.097656" xlink:href="#ArialMT-4c"/>
     <use x="305.712891" xlink:href="#ArialMT-4d"/>
     <use x="389.013672" xlink:href="#ArialMT-20"/>
     <use x="416.796875" xlink:href="#ArialMT-25"/>
     <use x="505.712891" xlink:href="#ArialMT-20"/>
     <use x="533.496094" xlink:href="#ArialMT-3d"/>
     <use x="591.894531" xlink:href="#ArialMT-20"/>
     <use x="619.677734" xlink:href="#ArialMT-38"/>
     <use x="675.292969" xlink:href="#ArialMT-33"/>
     <use x="730.908203" xlink:href="#ArialMT-2e"/>
     <use x="758.691406" xlink:href="#ArialMT-34"/>
     <use x="814.306641" xlink:href="#ArialMT-2c"/>
     <use x="842.089844" xlink:href="#ArialMT-20"/>
     <use x="869.873047" xlink:href="#ArialMT-50"/>
     <use x="936.572266" xlink:href="#ArialMT-6f"/>
     <use x="992.1875" xlink:href="#ArialMT-73"/>
     <use x="1042.1875" xlink:href="#ArialMT-74"/>
     <use x="1069.970703" xlink:href="#ArialMT-20"/>
     <use x="1097.753906" xlink:href="#ArialMT-45"/>
     <use x="1164.453125" xlink:href="#ArialMT-4c"/>
     <use x="1220.068359" xlink:href="#ArialMT-4d"/>
     <use x="1303.369141" xlink:href="#ArialMT-20"/>
     <use x="1331.152344" xlink:href="#ArialMT-25"/>
     <use x="1420.068359" xlink:href="#ArialMT-20"/>
     <use x="1447.851562" xlink:href="#ArialMT-3d"/>
     <use x="1506.25" xlink:href="#ArialMT-20"/>
     <use x="1534.033203" xlink:href="#ArialMT-31"/>
     <use x="1589.648438" xlink:href="#ArialMT-2e"/>
     <use x="1617.431641" xlink:href="#ArialMT-31"/>
     <use x="1673.046875" xlink:href="#ArialMT-32"/>
    </g>
   </g>
   <g id="legend_1">
    <g id="text_22">
     <!-- $T_e$, $n_e$ -->
     <g transform="translate(341.631394 87.110677)scale(0.22 -0.22)">
      <defs>
       <path d="M 3566 2113 
L 3156 0 
L 2578 0 
L 2988 2091 
Q 3016 2238 3031 2350 
Q 3047 2463 3047 2528 
Q 3047 2791 2881 2937 
Q 2716 3084 2419 3084 
Q 1956 3084 1622 2776 
Q 1288 2469 1184 1941 
L 800 0 
L 225 0 
L 903 3500 
L 1478 3500 
L 1363 2950 
Q 1603 3253 1940 3418 
Q 2278 3584 2650 3584 
Q 3113 3584 3367 3334 
Q 3622 3084 3622 2631 
Q 3622 2519 3608 2391 
Q 3594 2263 3566 2113 
z
" id="DejaVuSans-Oblique-6e" transform="scale(0.015625)"/>
      </defs>
      <use transform="translate(0 0.09375)" xlink:href="#DejaVuSans-Oblique-54"/>
      <use transform="translate(61.083984 -16.3125)scale(0.7)" xlink:href="#DejaVuSans-Oblique-65"/>
      <use transform="translate(106.884766 0.09375)" xlink:href="#ArialMT-2c"/>
      <use transform="translate(134.667969 0.09375)" xlink:href="#ArialMT-20"/>
      <use transform="translate(162.451172 0.09375)" xlink:href="#DejaVuSans-Oblique-6e"/>
      <use transform="translate(225.830078 -16.3125)scale(0.7)" xlink:href="#DejaVuSans-Oblique-65"/>
     </g>
    </g>
    <g id="PathCollection_1">
     <defs>
      <path d="M 0 6.614378 
C 1.754154 6.614378 3.436698 5.917446 4.677072 4.677072 
C 5.917446 3.436698 6.614378 1.754154 6.614378 0 
C 6.614378 -1.754154 5.917446 -3.436698 4.677072 -4.677072 
C 3.436698 -5.917446 1.754154 -6.614378 0 -6.614378 
C -1.754154 -6.614378 -3.436698 -5.917446 -4.677072 -4.677072 
C -5.917446 -3.436698 -6.614378 -1.754154 -6.614378 0 
C -6.614378 1.754154 -5.917446 3.436698 -4.677072 4.677072 
C -3.436698 5.917446 -1.754154 6.614378 0 6.614378 
z
" id="md6289f7c93" style="stroke:#000000;"/>
     </defs>
     <g>
      <use style="fill:#ffa500;stroke:#000000;" x="353.181394" xlink:href="#md6289f7c93" y="112.479427"/>
     </g>
    </g>
    <g id="PathCollection_2">
     <defs>
      <path d="M 0 6.614378 
C 1.754154 6.614378 3.436698 5.917446 4.677072 4.677072 
C 5.917446 3.436698 6.614378 1.754154 6.614378 0 
C 6.614378 -1.754154 5.917446 -3.436698 4.677072 -4.677072 
C 3.436698 -5.917446 1.754154 -6.614378 0 -6.614378 
C -1.754154 -6.614378 -3.436698 -5.917446 -4.677072 -4.677072 
C -5.917446 -3.436698 -6.614378 -1.754154 -6.614378 0 
C -6.614378 1.754154 -5.917446 3.436698 -4.677072 4.677072 
C -3.436698 5.917446 -1.754154 6.614378 0 6.614378 
z
" id="m17cb9f7f72" style="stroke:#000000;"/>
     </defs>
     <g>
      <use style="fill:#4169e1;stroke:#000000;" x="385.081394" xlink:href="#m17cb9f7f72" y="112.479427"/>
     </g>
    </g>
    <g id="text_23">
     <!-- Pre-ELM -->
     <g transform="translate(403.231394 119.863177)scale(0.22 -0.22)">
      <defs>
       <path d="M 203 1375 
L 203 1941 
L 1931 1941 
L 1931 1375 
L 203 1375 
z
" id="ArialMT-2d" transform="scale(0.015625)"/>
      </defs>
      <use xlink:href="#ArialMT-50"/>
      <use x="66.699219" xlink:href="#ArialMT-72"/>
      <use x="100" xlink:href="#ArialMT-65"/>
      <use x="155.615234" xlink:href="#ArialMT-2d"/>
      <use x="188.916016" xlink:href="#ArialMT-45"/>
      <use x="255.615234" xlink:href="#ArialMT-4c"/>
      <use x="311.230469" xlink:href="#ArialMT-4d"/>
     </g>
    </g>
    <g id="PathCollection_3">
     <defs>
      <path d="M 0 -6.614378 
L -6.614378 6.614378 
L 6.614378 6.614378 
z
" id="m625458a337" style="stroke:#000000;"/>
     </defs>
     <g>
      <use style="fill:#d2b48c;stroke:#000000;" x="353.181394" xlink:href="#m625458a337" y="145.231927"/>
     </g>
    </g>
    <g id="PathCollection_4">
     <defs>
      <path d="M 0 -6.614378 
L -6.614378 6.614378 
L 6.614378 6.614378 
z
" id="mfff74f3dd3" style="stroke:#000000;"/>
     </defs>
     <g>
      <use style="fill:#5f9ea0;stroke:#000000;" x="385.081394" xlink:href="#mfff74f3dd3" y="145.231927"/>
     </g>
    </g>
    <g id="text_24">
     <!-- Post-ELM -->
     <g transform="translate(403.231394 152.615677)scale(0.22 -0.22)">
      <use xlink:href="#ArialMT-50"/>
      <use x="66.699219" xlink:href="#ArialMT-6f"/>
      <use x="122.314453" xlink:href="#ArialMT-73"/>
      <use x="172.314453" xlink:href="#ArialMT-74"/>
      <use x="200.097656" xlink:href="#ArialMT-2d"/>
      <use x="233.398438" xlink:href="#ArialMT-45"/>
      <use x="300.097656" xlink:href="#ArialMT-4c"/>
      <use x="355.712891" xlink:href="#ArialMT-4d"/>
     </g>
    </g>
   </g>
   <g id="PathCollection_5">
    <g clip-path="url(#p564602a645)">
     <use style="fill:#d2b48c;stroke:#000000;" x="82.132269" xlink:href="#m625458a337" y="274.932818"/>
     <use style="fill:#d2b48c;stroke:#000000;" x="115.252277" xlink:href="#m625458a337" y="334.039049"/>
     <use style="fill:#d2b48c;stroke:#000000;" x="137.150252" xlink:href="#m625458a337" y="304.692218"/>
     <use style="fill:#d2b48c;stroke:#000000;" x="158.219151" xlink:href="#m625458a337" y="298.721787"/>
     <use style="fill:#d2b48c;stroke:#000000;" x="180.39945" xlink:href="#m625458a337" y="319.897361"/>
     <use style="fill:#d2b48c;stroke:#000000;" x="202.028356" xlink:href="#m625458a337" y="341.147112"/>
     <use style="fill:#d2b48c;stroke:#000000;" x="224.491641" xlink:href="#m625458a337" y="351.138418"/>
     <use style="fill:#d2b48c;stroke:#000000;" x="246.126512" xlink:href="#m625458a337" y="447.604134"/>
     <use style="fill:#d2b48c;stroke:#000000;" x="268.041056" xlink:href="#m625458a337" y="485.500044"/>
     <use style="fill:#d2b48c;stroke:#000000;" x="289.681228" xlink:href="#m625458a337" y="516.671304"/>
     <use style="fill:#d2b48c;stroke:#000000;" x="311.603062" xlink:href="#m625458a337" y="519.517319"/>
     <use style="fill:#d2b48c;stroke:#000000;" x="333.527547" xlink:href="#m625458a337" y="521.895847"/>
     <use style="fill:#d2b48c;stroke:#000000;" x="355.733029" xlink:href="#m625458a337" y="543.591906"/>
     <use style="fill:#d2b48c;stroke:#000000;" x="377.665467" xlink:href="#m625458a337" y="543.591906"/>
     <use style="fill:#d2b48c;stroke:#000000;" x="399.878239" xlink:href="#m625458a337" y="521.645013"/>
     <use style="fill:#d2b48c;stroke:#000000;" x="421.540282" xlink:href="#m625458a337" y="543.591906"/>
     <use style="fill:#d2b48c;stroke:#000000;" x="454.735842" xlink:href="#m625458a337" y="543.591906"/>
     <use style="fill:#d2b48c;stroke:#000000;" x="498.772364" xlink:href="#m625458a337" y="543.591906"/>
    </g>
   </g>
   <g id="PathCollection_6">
    <g clip-path="url(#p564602a645)">
     <use style="fill:#ffa500;stroke:#000000;" x="81.99177" xlink:href="#md6289f7c93" y="178.553009"/>
     <use style="fill:#ffa500;stroke:#000000;" x="115.113766" xlink:href="#md6289f7c93" y="253.715275"/>
     <use style="fill:#ffa500;stroke:#000000;" x="137.012404" xlink:href="#md6289f7c93" y="258.829766"/>
     <use style="fill:#ffa500;stroke:#000000;" x="158.082628" xlink:href="#md6289f7c93" y="240.39884"/>
     <use style="fill:#ffa500;stroke:#000000;" x="180.264252" xlink:href="#md6289f7c93" y="276.758704"/>
     <use style="fill:#ffa500;stroke:#000000;" x="201.893821" xlink:href="#md6289f7c93" y="270.797845"/>
     <use style="fill:#ffa500;stroke:#000000;" x="224.358432" xlink:href="#md6289f7c93" y="325.024803"/>
     <use style="fill:#ffa500;stroke:#000000;" x="245.994628" xlink:href="#md6289f7c93" y="347.31085"/>
     <use style="fill:#ffa500;stroke:#000000;" x="267.909835" xlink:href="#md6289f7c93" y="414.740435"/>
     <use style="fill:#ffa500;stroke:#000000;" x="289.55067" xlink:href="#md6289f7c93" y="478.857362"/>
     <use style="fill:#ffa500;stroke:#000000;" x="311.473167" xlink:href="#md6289f7c93" y="528.559439"/>
     <use style="fill:#ffa500;stroke:#000000;" x="333.398314" xlink:href="#md6289f7c93" y="543.591906"/>
     <use style="fill:#ffa500;stroke:#000000;" x="335.489931" xlink:href="#md6289f7c93" y="-1"/>
     <use style="fill:#ffa500;stroke:#000000;" x="375.532023" xlink:href="#md6289f7c93" y="-1"/>
     <use style="fill:#ffa500;stroke:#000000;" x="377.536897" xlink:href="#md6289f7c93" y="525.904275"/>
     <use style="fill:#ffa500;stroke:#000000;" x="399.750995" xlink:href="#md6289f7c93" y="543.591906"/>
     <use style="fill:#ffa500;stroke:#000000;" x="421.413038" xlink:href="#md6289f7c93" y="543.591906"/>
     <use style="fill:#ffa500;stroke:#000000;" x="454.608598" xlink:href="#md6289f7c93" y="543.591906"/>
     <use style="fill:#ffa500;stroke:#000000;" x="498.645782" xlink:href="#md6289f7c93" y="543.591906"/>
    </g>
   </g>
  </g>
  <g id="axes_2">
   <g id="matplotlib.axis_3">
    <g id="ytick_10">
     <g id="line2d_21">
      <defs>
       <path d="M 0 0 
L 3.5 0 
" id="m967b0e8c19" style="stroke:#000000;stroke-width:0.8;"/>
      </defs>
      <g>
       <use style="stroke:#000000;stroke-width:0.8;" x="519.611394" xlink:href="#m967b0e8c19" y="550.580946"/>
      </g>
     </g>
     <g id="text_25">
      <!-- 0 -->
      <g transform="translate(526.611394 556.307196)scale(0.16 -0.16)">
       <use xlink:href="#ArialMT-30"/>
      </g>
     </g>
    </g>
    <g id="ytick_11">
     <g id="line2d_22">
      <g>
       <use style="stroke:#000000;stroke-width:0.8;" x="519.611394" xlink:href="#m967b0e8c19" y="481.434326"/>
      </g>
     </g>
     <g id="text_26">
      <!-- 1 -->
      <g transform="translate(526.611394 487.160576)scale(0.16 -0.16)">
       <use xlink:href="#ArialMT-31"/>
      </g>
     </g>
    </g>
    <g id="ytick_12">
     <g id="line2d_23">
      <g>
       <use style="stroke:#000000;stroke-width:0.8;" x="519.611394" xlink:href="#m967b0e8c19" y="412.287706"/>
      </g>
     </g>
     <g id="text_27">
      <!-- 2 -->
      <g transform="translate(526.611394 418.013956)scale(0.16 -0.16)">
       <use xlink:href="#ArialMT-32"/>
      </g>
     </g>
    </g>
    <g id="ytick_13">
     <g id="line2d_24">
      <g>
       <use style="stroke:#000000;stroke-width:0.8;" x="519.611394" xlink:href="#m967b0e8c19" y="343.141086"/>
      </g>
     </g>
     <g id="text_28">
      <!-- 3 -->
      <g transform="translate(526.611394 348.867336)scale(0.16 -0.16)">
       <use xlink:href="#ArialMT-33"/>
      </g>
     </g>
    </g>
    <g id="ytick_14">
     <g id="line2d_25">
      <g>
       <use style="stroke:#000000;stroke-width:0.8;" x="519.611394" xlink:href="#m967b0e8c19" y="273.994466"/>
      </g>
     </g>
     <g id="text_29">
      <!-- 4 -->
      <g transform="translate(526.611394 279.720716)scale(0.16 -0.16)">
       <use xlink:href="#ArialMT-34"/>
      </g>
     </g>
    </g>
    <g id="ytick_15">
     <g id="line2d_26">
      <g>
       <use style="stroke:#000000;stroke-width:0.8;" x="519.611394" xlink:href="#m967b0e8c19" y="204.847846"/>
      </g>
     </g>
     <g id="text_30">
      <!-- 5 -->
      <g transform="translate(526.611394 210.574096)scale(0.16 -0.16)">
       <use xlink:href="#ArialMT-35"/>
      </g>
     </g>
    </g>
    <g id="ytick_16">
     <g id="line2d_27">
      <g>
       <use style="stroke:#000000;stroke-width:0.8;" x="519.611394" xlink:href="#m967b0e8c19" y="135.701226"/>
      </g>
     </g>
     <g id="text_31">
      <!-- 6 -->
      <g transform="translate(526.611394 141.427476)scale(0.16 -0.16)">
       <use xlink:href="#ArialMT-36"/>
      </g>
     </g>
    </g>
    <g id="ytick_17">
     <g id="line2d_28">
      <g>
       <use style="stroke:#000000;stroke-width:0.8;" x="519.611394" xlink:href="#m967b0e8c19" y="66.554606"/>
      </g>
     </g>
     <g id="text_32">
      <!-- 7 -->
      <g transform="translate(526.611394 72.280856)scale(0.16 -0.16)">
       <use xlink:href="#ArialMT-37"/>
      </g>
     </g>
    </g>
    <g id="text_33">
     <!-- $n_e$ [ $10^{19}$ m$^{-3}$ ] -->
     <g transform="translate(559.528894 388.523586)rotate(-90)scale(0.22 -0.22)">
      <defs>
       <path d="M 703 97 
L 703 672 
Q 941 559 1184 500 
Q 1428 441 1663 441 
Q 2288 441 2617 861 
Q 2947 1281 2994 2138 
Q 2813 1869 2534 1725 
Q 2256 1581 1919 1581 
Q 1219 1581 811 2004 
Q 403 2428 403 3163 
Q 403 3881 828 4315 
Q 1253 4750 1959 4750 
Q 2769 4750 3195 4129 
Q 3622 3509 3622 2328 
Q 3622 1225 3098 567 
Q 2575 -91 1691 -91 
Q 1453 -91 1209 -44 
Q 966 3 703 97 
z
M 1959 2075 
Q 2384 2075 2632 2365 
Q 2881 2656 2881 3163 
Q 2881 3666 2632 3958 
Q 2384 4250 1959 4250 
Q 1534 4250 1286 3958 
Q 1038 3666 1038 3163 
Q 1038 2656 1286 2365 
Q 1534 2075 1959 2075 
z
" id="DejaVuSans-39" transform="scale(0.015625)"/>
       <path d="M 678 2272 
L 4684 2272 
L 4684 1741 
L 678 1741 
L 678 2272 
z
" id="DejaVuSans-2212" transform="scale(0.015625)"/>
       <path d="M 2597 2516 
Q 3050 2419 3304 2112 
Q 3559 1806 3559 1356 
Q 3559 666 3084 287 
Q 2609 -91 1734 -91 
Q 1441 -91 1130 -33 
Q 819 25 488 141 
L 488 750 
Q 750 597 1062 519 
Q 1375 441 1716 441 
Q 2309 441 2620 675 
Q 2931 909 2931 1356 
Q 2931 1769 2642 2001 
Q 2353 2234 1838 2234 
L 1294 2234 
L 1294 2753 
L 1863 2753 
Q 2328 2753 2575 2939 
Q 2822 3125 2822 3475 
Q 2822 3834 2567 4026 
Q 2313 4219 1838 4219 
Q 1578 4219 1281 4162 
Q 984 4106 628 3988 
L 628 4550 
Q 988 4650 1302 4700 
Q 1616 4750 1894 4750 
Q 2613 4750 3031 4423 
Q 3450 4097 3450 3541 
Q 3450 3153 3228 2886 
Q 3006 2619 2597 2516 
z
" id="DejaVuSans-33" transform="scale(0.015625)"/>
      </defs>
      <use transform="translate(0 0.765625)" xlink:href="#DejaVuSans-Oblique-6e"/>
      <use transform="translate(63.378906 -15.640625)scale(0.7)" xlink:href="#DejaVuSans-Oblique-65"/>
      <use transform="translate(109.179688 0.765625)" xlink:href="#ArialMT-20"/>
      <use transform="translate(136.962891 0.765625)" xlink:href="#ArialMT-5b"/>
      <use transform="translate(164.746094 0.765625)" xlink:href="#ArialMT-20"/>
      <use transform="translate(192.529297 0.765625)" xlink:href="#DejaVuSans-31"/>
      <use transform="translate(256.152344 0.765625)" xlink:href="#DejaVuSans-30"/>
      <use transform="translate(320.732422 39.046875)scale(0.7)" xlink:href="#DejaVuSans-31"/>
      <use transform="translate(365.268555 39.046875)scale(0.7)" xlink:href="#DejaVuSans-39"/>
      <use transform="translate(412.539062 0.765625)" xlink:href="#ArialMT-20"/>
      <use transform="translate(440.322266 0.765625)" xlink:href="#ArialMT-6d"/>
      <use transform="translate(524.580078 39.046875)scale(0.7)" xlink:href="#DejaVuSans-2212"/>
      <use transform="translate(583.232422 39.046875)scale(0.7)" xlink:href="#DejaVuSans-33"/>
      <use transform="translate(630.50293 0.765625)" xlink:href="#ArialMT-20"/>
      <use transform="translate(658.286133 0.765625)" xlink:href="#ArialMT-5d"/>
     </g>
    </g>
   </g>
   <g id="patch_7">
    <path d="M 61.15274 574.343682 
L 61.15274 51.56349 
" style="fill:none;stroke:#000000;stroke-linecap:square;stroke-linejoin:miter;stroke-width:0.8;"/>
   </g>
   <g id="patch_8">
    <path d="M 519.611394 574.343682 
L 519.611394 51.56349 
" style="fill:none;stroke:#000000;stroke-linecap:square;stroke-linejoin:miter;stroke-width:0.8;"/>
   </g>
   <g id="patch_9">
    <path d="M 61.15274 574.343682 
L 519.611394 574.343682 
" style="fill:none;stroke:#000000;stroke-linecap:square;stroke-linejoin:miter;stroke-width:0.8;"/>
   </g>
   <g id="patch_10">
    <path d="M 61.15274 51.56349 
L 519.611394 51.56349 
" style="fill:none;stroke:#000000;stroke-linecap:square;stroke-linejoin:miter;stroke-width:0.8;"/>
   </g>
   <g id="PathCollection_7">
    <g clip-path="url(#p564602a645)">
     <use style="fill:#5f9ea0;stroke:#000000;" x="82.132269" xlink:href="#mfff74f3dd3" y="159.016884"/>
     <use style="fill:#5f9ea0;stroke:#000000;" x="115.252277" xlink:href="#mfff74f3dd3" y="167.486747"/>
     <use style="fill:#5f9ea0;stroke:#000000;" x="137.150252" xlink:href="#mfff74f3dd3" y="183.085417"/>
     <use style="fill:#5f9ea0;stroke:#000000;" x="158.219151" xlink:href="#mfff74f3dd3" y="192.267766"/>
     <use style="fill:#5f9ea0;stroke:#000000;" x="180.39945" xlink:href="#mfff74f3dd3" y="184.415759"/>
     <use style="fill:#5f9ea0;stroke:#000000;" x="202.028356" xlink:href="#mfff74f3dd3" y="208.791489"/>
     <use style="fill:#5f9ea0;stroke:#000000;" x="224.491641" xlink:href="#mfff74f3dd3" y="207.745859"/>
     <use style="fill:#5f9ea0;stroke:#000000;" x="246.126512" xlink:href="#mfff74f3dd3" y="271.041918"/>
     <use style="fill:#5f9ea0;stroke:#000000;" x="268.041056" xlink:href="#mfff74f3dd3" y="351.600382"/>
     <use style="fill:#5f9ea0;stroke:#000000;" x="289.681228" xlink:href="#mfff74f3dd3" y="353.87063"/>
     <use style="fill:#5f9ea0;stroke:#000000;" x="311.603062" xlink:href="#mfff74f3dd3" y="369.377458"/>
     <use style="fill:#5f9ea0;stroke:#000000;" x="333.527547" xlink:href="#mfff74f3dd3" y="395.035028"/>
     <use style="fill:#5f9ea0;stroke:#000000;" x="355.733029" xlink:href="#mfff74f3dd3" y="550.580946"/>
     <use style="fill:#5f9ea0;stroke:#000000;" x="377.665467" xlink:href="#mfff74f3dd3" y="550.580946"/>
     <use style="fill:#5f9ea0;stroke:#000000;" x="399.878239" xlink:href="#mfff74f3dd3" y="470.504726"/>
     <use style="fill:#5f9ea0;stroke:#000000;" x="421.540282" xlink:href="#mfff74f3dd3" y="550.580946"/>
     <use style="fill:#5f9ea0;stroke:#000000;" x="454.735842" xlink:href="#mfff74f3dd3" y="550.580946"/>
     <use style="fill:#5f9ea0;stroke:#000000;" x="498.772364" xlink:href="#mfff74f3dd3" y="550.580946"/>
    </g>
   </g>
   <g id="PathCollection_8">
    <g clip-path="url(#p564602a645)">
     <use style="fill:#4169e1;stroke:#000000;" x="81.99177" xlink:href="#m17cb9f7f72" y="91.636095"/>
     <use style="fill:#4169e1;stroke:#000000;" x="115.113766" xlink:href="#m17cb9f7f72" y="97.071509"/>
     <use style="fill:#4169e1;stroke:#000000;" x="137.012404" xlink:href="#m17cb9f7f72" y="86.940862"/>
     <use style="fill:#4169e1;stroke:#000000;" x="158.082628" xlink:href="#m17cb9f7f72" y="112.872988"/>
     <use style="fill:#4169e1;stroke:#000000;" x="180.264252" xlink:href="#m17cb9f7f72" y="78.963629"/>
     <use style="fill:#4169e1;stroke:#000000;" x="201.893821" xlink:href="#m17cb9f7f72" y="89.575497"/>
     <use style="fill:#4169e1;stroke:#000000;" x="224.358432" xlink:href="#m17cb9f7f72" y="75.326226"/>
     <use style="fill:#4169e1;stroke:#000000;" x="245.994628" xlink:href="#m17cb9f7f72" y="135.01403"/>
     <use style="fill:#4169e1;stroke:#000000;" x="267.909835" xlink:href="#m17cb9f7f72" y="173.936568"/>
     <use style="fill:#4169e1;stroke:#000000;" x="289.55067" xlink:href="#m17cb9f7f72" y="288.366771"/>
     <use style="fill:#4169e1;stroke:#000000;" x="311.473167" xlink:href="#m17cb9f7f72" y="450.671503"/>
     <use style="fill:#4169e1;stroke:#000000;" x="333.398314" xlink:href="#m17cb9f7f72" y="550.580946"/>
     <use style="fill:#4169e1;stroke:#000000;" x="355.604459" xlink:href="#m17cb9f7f72" y="479.163517"/>
     <use style="fill:#4169e1;stroke:#000000;" x="377.536897" xlink:href="#m17cb9f7f72" y="462.741907"/>
     <use style="fill:#4169e1;stroke:#000000;" x="399.750995" xlink:href="#m17cb9f7f72" y="550.580946"/>
     <use style="fill:#4169e1;stroke:#000000;" x="421.413038" xlink:href="#m17cb9f7f72" y="550.580946"/>
     <use style="fill:#4169e1;stroke:#000000;" x="454.608598" xlink:href="#m17cb9f7f72" y="550.580946"/>
     <use style="fill:#4169e1;stroke:#000000;" x="498.645782" xlink:href="#m17cb9f7f72" y="550.580946"/>
    </g>
   </g>
   <g id="PathCollection_9">
    <defs>
     <path d="M -4.145781 8.291562 
L 0 4.145781 
L 4.145781 8.291562 
L 8.291562 4.145781 
L 4.145781 0 
L 8.291562 -4.145781 
L 4.145781 -8.291562 
L 0 -4.145781 
L -4.145781 -8.291562 
L -8.291562 -4.145781 
L -4.145781 0 
L -8.291562 4.145781 
z
" id="m614555a369" style="stroke:#000000;stroke-width:3;"/>
    </defs>
    <g clip-path="url(#p564602a645)">
     <use style="fill:#4169e1;stroke:#000000;stroke-width:3;" x="290.97579" xlink:href="#m614555a369" y="298.917741"/>
    </g>
   </g>
   <g id="PathCollection_10">
    <defs>
     <path d="M -4.145781 8.291562 
L 0 4.145781 
L 4.145781 8.291562 
L 8.291562 4.145781 
L 4.145781 0 
L 8.291562 -4.145781 
L 4.145781 -8.291562 
L 0 -4.145781 
L -4.145781 -8.291562 
L -8.291562 -4.145781 
L -4.145781 0 
L -8.291562 4.145781 
z
" id="md5e8ccf2c3" style="stroke:#000000;stroke-width:3;"/>
    </defs>
    <g clip-path="url(#p564602a645)">
     <use style="fill:#5f9ea0;stroke:#000000;stroke-width:3;" x="266.068135" xlink:href="#md5e8ccf2c3" y="344.347863"/>
    </g>
   </g>
  </g>
 </g>
 <defs>
  <clipPath id="p564602a645">
   <rect height="522.780192" width="458.458654" x="61.15274" y="51.56349"/>
  </clipPath>
 </defs>
</svg>
