<?xml version="1.0" encoding="utf-8" standalone="no"?>
<!DOCTYPE svg PUBLIC "-//W3C//DTD SVG 1.1//EN"
  "http://www.w3.org/Graphics/SVG/1.1/DTD/svg11.dtd">
<svg height="720pt" version="1.1" viewBox="0 0 720 720" width="720pt" xmlns="http://www.w3.org/2000/svg" xmlns:xlink="http://www.w3.org/1999/xlink">
 <metadata>
  <rdf:RDF xmlns:cc="http://creativecommons.org/ns#" xmlns:dc="http://purl.org/dc/elements/1.1/" xmlns:rdf="http://www.w3.org/1999/02/22-rdf-syntax-ns#">
   <cc:Work>
    <dc:type rdf:resource="http://purl.org/dc/dcmitype/StillImage"/>
    <dc:date>2022-05-23T09:51:07.729915</dc:date>
    <dc:format>image/svg+xml</dc:format>
    <dc:creator>
     <cc:Agent>
      <dc:title>Matplotlib v3.4.3, https://matplotlib.org/</dc:title>
     </cc:Agent>
    </dc:creator>
   </cc:Work>
  </rdf:RDF>
 </metadata>
 <defs>
  <style type="text/css">*{stroke-linecap:butt;stroke-linejoin:round;}</style>
 </defs>
 <g id="figure_1">
  <g id="patch_1">
   <path d="M 0 720 
L 720 720 
L 720 0 
L 0 0 
z
" style="fill:#ffffff;"/>
  </g>
  <g id="axes_1">
   <g id="patch_2">
    <path d="M 62.014615 671.15851 
L 673.11226 671.15851 
L 673.11226 68.565595 
L 62.014615 68.565595 
z
" style="fill:#ffffff;"/>
   </g>
   <g id="line2d_1">
    <path clip-path="url(#p1fcd03733e)" d="M 368.354834 671.15851 
L 368.354834 68.565595 
" style="fill:none;stroke:#b22222;stroke-dasharray:7.4,3.2;stroke-dashoffset:0;stroke-width:2;"/>
   </g>
   <g id="line2d_2">
    <path clip-path="url(#p1fcd03733e)" d="M 335.154438 671.15851 
L 335.154438 68.565595 
" style="fill:none;stroke:#fa8072;stroke-dasharray:7.4,3.2;stroke-dashoffset:0;stroke-width:2;"/>
   </g>
   <g id="matplotlib.axis_1">
    <g id="xtick_1">
     <g id="line2d_3">
      <defs>
       <path d="M 0 0 
L 0 3.5 
" id="m26ee29ad42" style="stroke:#000000;stroke-width:0.8;"/>
      </defs>
      <g>
       <use style="stroke:#000000;stroke-width:0.8;" x="97.846343" xlink:href="#m26ee29ad42" y="671.15851"/>
      </g>
     </g>
     <g id="text_1">
      <!-- 3.72 -->
      <g transform="translate(82.260405 688.796322)scale(0.14 -0.14)">
       <defs>
        <path d="M 2597 2516 
Q 3050 2419 3304 2112 
Q 3559 1806 3559 1356 
Q 3559 666 3084 287 
Q 2609 -91 1734 -91 
Q 1441 -91 1130 -33 
Q 819 25 488 141 
L 488 750 
Q 750 597 1062 519 
Q 1375 441 1716 441 
Q 2309 441 2620 675 
Q 2931 909 2931 1356 
Q 2931 1769 2642 2001 
Q 2353 2234 1838 2234 
L 1294 2234 
L 1294 2753 
L 1863 2753 
Q 2328 2753 2575 2939 
Q 2822 3125 2822 3475 
Q 2822 3834 2567 4026 
Q 2313 4219 1838 4219 
Q 1578 4219 1281 4162 
Q 984 4106 628 3988 
L 628 4550 
Q 988 4650 1302 4700 
Q 1616 4750 1894 4750 
Q 2613 4750 3031 4423 
Q 3450 4097 3450 3541 
Q 3450 3153 3228 2886 
Q 3006 2619 2597 2516 
z
" id="DejaVuSans-33" transform="scale(0.015625)"/>
        <path d="M 684 794 
L 1344 794 
L 1344 0 
L 684 0 
L 684 794 
z
" id="DejaVuSans-2e" transform="scale(0.015625)"/>
        <path d="M 525 4666 
L 3525 4666 
L 3525 4397 
L 1831 0 
L 1172 0 
L 2766 4134 
L 525 4134 
L 525 4666 
z
" id="DejaVuSans-37" transform="scale(0.015625)"/>
        <path d="M 1228 531 
L 3431 531 
L 3431 0 
L 469 0 
L 469 531 
Q 828 903 1448 1529 
Q 2069 2156 2228 2338 
Q 2531 2678 2651 2914 
Q 2772 3150 2772 3378 
Q 2772 3750 2511 3984 
Q 2250 4219 1831 4219 
Q 1534 4219 1204 4116 
Q 875 4013 500 3803 
L 500 4441 
Q 881 4594 1212 4672 
Q 1544 4750 1819 4750 
Q 2544 4750 2975 4387 
Q 3406 4025 3406 3419 
Q 3406 3131 3298 2873 
Q 3191 2616 2906 2266 
Q 2828 2175 2409 1742 
Q 1991 1309 1228 531 
z
" id="DejaVuSans-32" transform="scale(0.015625)"/>
       </defs>
       <use xlink:href="#DejaVuSans-33"/>
       <use x="63.623047" xlink:href="#DejaVuSans-2e"/>
       <use x="95.410156" xlink:href="#DejaVuSans-37"/>
       <use x="159.033203" xlink:href="#DejaVuSans-32"/>
      </g>
     </g>
    </g>
    <g id="xtick_2">
     <g id="line2d_4">
      <g>
       <use style="stroke:#000000;stroke-width:0.8;" x="171.949715" xlink:href="#m26ee29ad42" y="671.15851"/>
      </g>
     </g>
     <g id="text_2">
      <!-- 3.74 -->
      <g transform="translate(156.363777 688.796322)scale(0.14 -0.14)">
       <defs>
        <path d="M 2419 4116 
L 825 1625 
L 2419 1625 
L 2419 4116 
z
M 2253 4666 
L 3047 4666 
L 3047 1625 
L 3713 1625 
L 3713 1100 
L 3047 1100 
L 3047 0 
L 2419 0 
L 2419 1100 
L 313 1100 
L 313 1709 
L 2253 4666 
z
" id="DejaVuSans-34" transform="scale(0.015625)"/>
       </defs>
       <use xlink:href="#DejaVuSans-33"/>
       <use x="63.623047" xlink:href="#DejaVuSans-2e"/>
       <use x="95.410156" xlink:href="#DejaVuSans-37"/>
       <use x="159.033203" xlink:href="#DejaVuSans-34"/>
      </g>
     </g>
    </g>
    <g id="xtick_3">
     <g id="line2d_5">
      <g>
       <use style="stroke:#000000;stroke-width:0.8;" x="246.053087" xlink:href="#m26ee29ad42" y="671.15851"/>
      </g>
     </g>
     <g id="text_3">
      <!-- 3.76 -->
      <g transform="translate(230.467149 688.796322)scale(0.14 -0.14)">
       <defs>
        <path d="M 2113 2584 
Q 1688 2584 1439 2293 
Q 1191 2003 1191 1497 
Q 1191 994 1439 701 
Q 1688 409 2113 409 
Q 2538 409 2786 701 
Q 3034 994 3034 1497 
Q 3034 2003 2786 2293 
Q 2538 2584 2113 2584 
z
M 3366 4563 
L 3366 3988 
Q 3128 4100 2886 4159 
Q 2644 4219 2406 4219 
Q 1781 4219 1451 3797 
Q 1122 3375 1075 2522 
Q 1259 2794 1537 2939 
Q 1816 3084 2150 3084 
Q 2853 3084 3261 2657 
Q 3669 2231 3669 1497 
Q 3669 778 3244 343 
Q 2819 -91 2113 -91 
Q 1303 -91 875 529 
Q 447 1150 447 2328 
Q 447 3434 972 4092 
Q 1497 4750 2381 4750 
Q 2619 4750 2861 4703 
Q 3103 4656 3366 4563 
z
" id="DejaVuSans-36" transform="scale(0.015625)"/>
       </defs>
       <use xlink:href="#DejaVuSans-33"/>
       <use x="63.623047" xlink:href="#DejaVuSans-2e"/>
       <use x="95.410156" xlink:href="#DejaVuSans-37"/>
       <use x="159.033203" xlink:href="#DejaVuSans-36"/>
      </g>
     </g>
    </g>
    <g id="xtick_4">
     <g id="line2d_6">
      <g>
       <use style="stroke:#000000;stroke-width:0.8;" x="320.156459" xlink:href="#m26ee29ad42" y="671.15851"/>
      </g>
     </g>
     <g id="text_4">
      <!-- 3.78 -->
      <g transform="translate(304.570521 688.796322)scale(0.14 -0.14)">
       <defs>
        <path d="M 2034 2216 
Q 1584 2216 1326 1975 
Q 1069 1734 1069 1313 
Q 1069 891 1326 650 
Q 1584 409 2034 409 
Q 2484 409 2743 651 
Q 3003 894 3003 1313 
Q 3003 1734 2745 1975 
Q 2488 2216 2034 2216 
z
M 1403 2484 
Q 997 2584 770 2862 
Q 544 3141 544 3541 
Q 544 4100 942 4425 
Q 1341 4750 2034 4750 
Q 2731 4750 3128 4425 
Q 3525 4100 3525 3541 
Q 3525 3141 3298 2862 
Q 3072 2584 2669 2484 
Q 3125 2378 3379 2068 
Q 3634 1759 3634 1313 
Q 3634 634 3220 271 
Q 2806 -91 2034 -91 
Q 1263 -91 848 271 
Q 434 634 434 1313 
Q 434 1759 690 2068 
Q 947 2378 1403 2484 
z
M 1172 3481 
Q 1172 3119 1398 2916 
Q 1625 2713 2034 2713 
Q 2441 2713 2670 2916 
Q 2900 3119 2900 3481 
Q 2900 3844 2670 4047 
Q 2441 4250 2034 4250 
Q 1625 4250 1398 4047 
Q 1172 3844 1172 3481 
z
" id="DejaVuSans-38" transform="scale(0.015625)"/>
       </defs>
       <use xlink:href="#DejaVuSans-33"/>
       <use x="63.623047" xlink:href="#DejaVuSans-2e"/>
       <use x="95.410156" xlink:href="#DejaVuSans-37"/>
       <use x="159.033203" xlink:href="#DejaVuSans-38"/>
      </g>
     </g>
    </g>
    <g id="xtick_5">
     <g id="line2d_7">
      <g>
       <use style="stroke:#000000;stroke-width:0.8;" x="394.259831" xlink:href="#m26ee29ad42" y="671.15851"/>
      </g>
     </g>
     <g id="text_5">
      <!-- 3.80 -->
      <g transform="translate(378.673893 688.796322)scale(0.14 -0.14)">
       <defs>
        <path d="M 2034 4250 
Q 1547 4250 1301 3770 
Q 1056 3291 1056 2328 
Q 1056 1369 1301 889 
Q 1547 409 2034 409 
Q 2525 409 2770 889 
Q 3016 1369 3016 2328 
Q 3016 3291 2770 3770 
Q 2525 4250 2034 4250 
z
M 2034 4750 
Q 2819 4750 3233 4129 
Q 3647 3509 3647 2328 
Q 3647 1150 3233 529 
Q 2819 -91 2034 -91 
Q 1250 -91 836 529 
Q 422 1150 422 2328 
Q 422 3509 836 4129 
Q 1250 4750 2034 4750 
z
" id="DejaVuSans-30" transform="scale(0.015625)"/>
       </defs>
       <use xlink:href="#DejaVuSans-33"/>
       <use x="63.623047" xlink:href="#DejaVuSans-2e"/>
       <use x="95.410156" xlink:href="#DejaVuSans-38"/>
       <use x="159.033203" xlink:href="#DejaVuSans-30"/>
      </g>
     </g>
    </g>
    <g id="xtick_6">
     <g id="line2d_8">
      <g>
       <use style="stroke:#000000;stroke-width:0.8;" x="468.363203" xlink:href="#m26ee29ad42" y="671.15851"/>
      </g>
     </g>
     <g id="text_6">
      <!-- 3.82 -->
      <g transform="translate(452.777265 688.796322)scale(0.14 -0.14)">
       <use xlink:href="#DejaVuSans-33"/>
       <use x="63.623047" xlink:href="#DejaVuSans-2e"/>
       <use x="95.410156" xlink:href="#DejaVuSans-38"/>
       <use x="159.033203" xlink:href="#DejaVuSans-32"/>
      </g>
     </g>
    </g>
    <g id="xtick_7">
     <g id="line2d_9">
      <g>
       <use style="stroke:#000000;stroke-width:0.8;" x="542.466575" xlink:href="#m26ee29ad42" y="671.15851"/>
      </g>
     </g>
     <g id="text_7">
      <!-- 3.84 -->
      <g transform="translate(526.880637 688.796322)scale(0.14 -0.14)">
       <use xlink:href="#DejaVuSans-33"/>
       <use x="63.623047" xlink:href="#DejaVuSans-2e"/>
       <use x="95.410156" xlink:href="#DejaVuSans-38"/>
       <use x="159.033203" xlink:href="#DejaVuSans-34"/>
      </g>
     </g>
    </g>
    <g id="xtick_8">
     <g id="line2d_10">
      <g>
       <use style="stroke:#000000;stroke-width:0.8;" x="616.569946" xlink:href="#m26ee29ad42" y="671.15851"/>
      </g>
     </g>
     <g id="text_8">
      <!-- 3.86 -->
      <g transform="translate(600.984009 688.796322)scale(0.14 -0.14)">
       <use xlink:href="#DejaVuSans-33"/>
       <use x="63.623047" xlink:href="#DejaVuSans-2e"/>
       <use x="95.410156" xlink:href="#DejaVuSans-38"/>
       <use x="159.033203" xlink:href="#DejaVuSans-36"/>
      </g>
     </g>
    </g>
    <g id="text_9">
     <!-- HRTS Line of Sight [m] -->
     <g transform="translate(243.627812 712.424448)scale(0.22 -0.22)">
      <defs>
       <path d="M 628 4666 
L 1259 4666 
L 1259 2753 
L 3553 2753 
L 3553 4666 
L 4184 4666 
L 4184 0 
L 3553 0 
L 3553 2222 
L 1259 2222 
L 1259 0 
L 628 0 
L 628 4666 
z
" id="DejaVuSans-48" transform="scale(0.015625)"/>
       <path d="M 2841 2188 
Q 3044 2119 3236 1894 
Q 3428 1669 3622 1275 
L 4263 0 
L 3584 0 
L 2988 1197 
Q 2756 1666 2539 1819 
Q 2322 1972 1947 1972 
L 1259 1972 
L 1259 0 
L 628 0 
L 628 4666 
L 2053 4666 
Q 2853 4666 3247 4331 
Q 3641 3997 3641 3322 
Q 3641 2881 3436 2590 
Q 3231 2300 2841 2188 
z
M 1259 4147 
L 1259 2491 
L 2053 2491 
Q 2509 2491 2742 2702 
Q 2975 2913 2975 3322 
Q 2975 3731 2742 3939 
Q 2509 4147 2053 4147 
L 1259 4147 
z
" id="DejaVuSans-52" transform="scale(0.015625)"/>
       <path d="M -19 4666 
L 3928 4666 
L 3928 4134 
L 2272 4134 
L 2272 0 
L 1638 0 
L 1638 4134 
L -19 4134 
L -19 4666 
z
" id="DejaVuSans-54" transform="scale(0.015625)"/>
       <path d="M 3425 4513 
L 3425 3897 
Q 3066 4069 2747 4153 
Q 2428 4238 2131 4238 
Q 1616 4238 1336 4038 
Q 1056 3838 1056 3469 
Q 1056 3159 1242 3001 
Q 1428 2844 1947 2747 
L 2328 2669 
Q 3034 2534 3370 2195 
Q 3706 1856 3706 1288 
Q 3706 609 3251 259 
Q 2797 -91 1919 -91 
Q 1588 -91 1214 -16 
Q 841 59 441 206 
L 441 856 
Q 825 641 1194 531 
Q 1563 422 1919 422 
Q 2459 422 2753 634 
Q 3047 847 3047 1241 
Q 3047 1584 2836 1778 
Q 2625 1972 2144 2069 
L 1759 2144 
Q 1053 2284 737 2584 
Q 422 2884 422 3419 
Q 422 4038 858 4394 
Q 1294 4750 2059 4750 
Q 2388 4750 2728 4690 
Q 3069 4631 3425 4513 
z
" id="DejaVuSans-53" transform="scale(0.015625)"/>
       <path id="DejaVuSans-20" transform="scale(0.015625)"/>
       <path d="M 628 4666 
L 1259 4666 
L 1259 531 
L 3531 531 
L 3531 0 
L 628 0 
L 628 4666 
z
" id="DejaVuSans-4c" transform="scale(0.015625)"/>
       <path d="M 603 3500 
L 1178 3500 
L 1178 0 
L 603 0 
L 603 3500 
z
M 603 4863 
L 1178 4863 
L 1178 4134 
L 603 4134 
L 603 4863 
z
" id="DejaVuSans-69" transform="scale(0.015625)"/>
       <path d="M 3513 2113 
L 3513 0 
L 2938 0 
L 2938 2094 
Q 2938 2591 2744 2837 
Q 2550 3084 2163 3084 
Q 1697 3084 1428 2787 
Q 1159 2491 1159 1978 
L 1159 0 
L 581 0 
L 581 3500 
L 1159 3500 
L 1159 2956 
Q 1366 3272 1645 3428 
Q 1925 3584 2291 3584 
Q 2894 3584 3203 3211 
Q 3513 2838 3513 2113 
z
" id="DejaVuSans-6e" transform="scale(0.015625)"/>
       <path d="M 3597 1894 
L 3597 1613 
L 953 1613 
Q 991 1019 1311 708 
Q 1631 397 2203 397 
Q 2534 397 2845 478 
Q 3156 559 3463 722 
L 3463 178 
Q 3153 47 2828 -22 
Q 2503 -91 2169 -91 
Q 1331 -91 842 396 
Q 353 884 353 1716 
Q 353 2575 817 3079 
Q 1281 3584 2069 3584 
Q 2775 3584 3186 3129 
Q 3597 2675 3597 1894 
z
M 3022 2063 
Q 3016 2534 2758 2815 
Q 2500 3097 2075 3097 
Q 1594 3097 1305 2825 
Q 1016 2553 972 2059 
L 3022 2063 
z
" id="DejaVuSans-65" transform="scale(0.015625)"/>
       <path d="M 1959 3097 
Q 1497 3097 1228 2736 
Q 959 2375 959 1747 
Q 959 1119 1226 758 
Q 1494 397 1959 397 
Q 2419 397 2687 759 
Q 2956 1122 2956 1747 
Q 2956 2369 2687 2733 
Q 2419 3097 1959 3097 
z
M 1959 3584 
Q 2709 3584 3137 3096 
Q 3566 2609 3566 1747 
Q 3566 888 3137 398 
Q 2709 -91 1959 -91 
Q 1206 -91 779 398 
Q 353 888 353 1747 
Q 353 2609 779 3096 
Q 1206 3584 1959 3584 
z
" id="DejaVuSans-6f" transform="scale(0.015625)"/>
       <path d="M 2375 4863 
L 2375 4384 
L 1825 4384 
Q 1516 4384 1395 4259 
Q 1275 4134 1275 3809 
L 1275 3500 
L 2222 3500 
L 2222 3053 
L 1275 3053 
L 1275 0 
L 697 0 
L 697 3053 
L 147 3053 
L 147 3500 
L 697 3500 
L 697 3744 
Q 697 4328 969 4595 
Q 1241 4863 1831 4863 
L 2375 4863 
z
" id="DejaVuSans-66" transform="scale(0.015625)"/>
       <path d="M 2906 1791 
Q 2906 2416 2648 2759 
Q 2391 3103 1925 3103 
Q 1463 3103 1205 2759 
Q 947 2416 947 1791 
Q 947 1169 1205 825 
Q 1463 481 1925 481 
Q 2391 481 2648 825 
Q 2906 1169 2906 1791 
z
M 3481 434 
Q 3481 -459 3084 -895 
Q 2688 -1331 1869 -1331 
Q 1566 -1331 1297 -1286 
Q 1028 -1241 775 -1147 
L 775 -588 
Q 1028 -725 1275 -790 
Q 1522 -856 1778 -856 
Q 2344 -856 2625 -561 
Q 2906 -266 2906 331 
L 2906 616 
Q 2728 306 2450 153 
Q 2172 0 1784 0 
Q 1141 0 747 490 
Q 353 981 353 1791 
Q 353 2603 747 3093 
Q 1141 3584 1784 3584 
Q 2172 3584 2450 3431 
Q 2728 3278 2906 2969 
L 2906 3500 
L 3481 3500 
L 3481 434 
z
" id="DejaVuSans-67" transform="scale(0.015625)"/>
       <path d="M 3513 2113 
L 3513 0 
L 2938 0 
L 2938 2094 
Q 2938 2591 2744 2837 
Q 2550 3084 2163 3084 
Q 1697 3084 1428 2787 
Q 1159 2491 1159 1978 
L 1159 0 
L 581 0 
L 581 4863 
L 1159 4863 
L 1159 2956 
Q 1366 3272 1645 3428 
Q 1925 3584 2291 3584 
Q 2894 3584 3203 3211 
Q 3513 2838 3513 2113 
z
" id="DejaVuSans-68" transform="scale(0.015625)"/>
       <path d="M 1172 4494 
L 1172 3500 
L 2356 3500 
L 2356 3053 
L 1172 3053 
L 1172 1153 
Q 1172 725 1289 603 
Q 1406 481 1766 481 
L 2356 481 
L 2356 0 
L 1766 0 
Q 1100 0 847 248 
Q 594 497 594 1153 
L 594 3053 
L 172 3053 
L 172 3500 
L 594 3500 
L 594 4494 
L 1172 4494 
z
" id="DejaVuSans-74" transform="scale(0.015625)"/>
       <path d="M 550 4863 
L 1875 4863 
L 1875 4416 
L 1125 4416 
L 1125 -397 
L 1875 -397 
L 1875 -844 
L 550 -844 
L 550 4863 
z
" id="DejaVuSans-5b" transform="scale(0.015625)"/>
       <path d="M 3328 2828 
Q 3544 3216 3844 3400 
Q 4144 3584 4550 3584 
Q 5097 3584 5394 3201 
Q 5691 2819 5691 2113 
L 5691 0 
L 5113 0 
L 5113 2094 
Q 5113 2597 4934 2840 
Q 4756 3084 4391 3084 
Q 3944 3084 3684 2787 
Q 3425 2491 3425 1978 
L 3425 0 
L 2847 0 
L 2847 2094 
Q 2847 2600 2669 2842 
Q 2491 3084 2119 3084 
Q 1678 3084 1418 2786 
Q 1159 2488 1159 1978 
L 1159 0 
L 581 0 
L 581 3500 
L 1159 3500 
L 1159 2956 
Q 1356 3278 1631 3431 
Q 1906 3584 2284 3584 
Q 2666 3584 2933 3390 
Q 3200 3197 3328 2828 
z
" id="DejaVuSans-6d" transform="scale(0.015625)"/>
       <path d="M 1947 4863 
L 1947 -844 
L 622 -844 
L 622 -397 
L 1369 -397 
L 1369 4416 
L 622 4416 
L 622 4863 
L 1947 4863 
z
" id="DejaVuSans-5d" transform="scale(0.015625)"/>
      </defs>
      <use xlink:href="#DejaVuSans-48"/>
      <use x="75.195312" xlink:href="#DejaVuSans-52"/>
      <use x="137.427734" xlink:href="#DejaVuSans-54"/>
      <use x="198.511719" xlink:href="#DejaVuSans-53"/>
      <use x="261.988281" xlink:href="#DejaVuSans-20"/>
      <use x="293.775391" xlink:href="#DejaVuSans-4c"/>
      <use x="349.488281" xlink:href="#DejaVuSans-69"/>
      <use x="377.271484" xlink:href="#DejaVuSans-6e"/>
      <use x="440.650391" xlink:href="#DejaVuSans-65"/>
      <use x="502.173828" xlink:href="#DejaVuSans-20"/>
      <use x="533.960938" xlink:href="#DejaVuSans-6f"/>
      <use x="595.142578" xlink:href="#DejaVuSans-66"/>
      <use x="630.347656" xlink:href="#DejaVuSans-20"/>
      <use x="662.134766" xlink:href="#DejaVuSans-53"/>
      <use x="725.611328" xlink:href="#DejaVuSans-69"/>
      <use x="753.394531" xlink:href="#DejaVuSans-67"/>
      <use x="816.871094" xlink:href="#DejaVuSans-68"/>
      <use x="880.25" xlink:href="#DejaVuSans-74"/>
      <use x="919.458984" xlink:href="#DejaVuSans-20"/>
      <use x="951.246094" xlink:href="#DejaVuSans-5b"/>
      <use x="990.259766" xlink:href="#DejaVuSans-6d"/>
      <use x="1087.671875" xlink:href="#DejaVuSans-5d"/>
     </g>
    </g>
   </g>
   <g id="matplotlib.axis_2">
    <g id="ytick_1">
     <g id="line2d_11">
      <defs>
       <path d="M 0 0 
L -3.5 0 
" id="m7126a805fb" style="stroke:#000000;stroke-width:0.8;"/>
      </defs>
      <g>
       <use style="stroke:#000000;stroke-width:0.8;" x="62.014615" xlink:href="#m7126a805fb" y="635.711868"/>
      </g>
     </g>
     <g id="text_10">
      <!-- 0 -->
      <g transform="translate(46.107115 641.030774)scale(0.14 -0.14)">
       <use xlink:href="#DejaVuSans-30"/>
      </g>
     </g>
    </g>
    <g id="ytick_2">
     <g id="line2d_12">
      <g>
       <use style="stroke:#000000;stroke-width:0.8;" x="62.014615" xlink:href="#m7126a805fb" y="564.818584"/>
      </g>
     </g>
     <g id="text_11">
      <!-- 100 -->
      <g transform="translate(28.292115 570.13749)scale(0.14 -0.14)">
       <defs>
        <path d="M 794 531 
L 1825 531 
L 1825 4091 
L 703 3866 
L 703 4441 
L 1819 4666 
L 2450 4666 
L 2450 531 
L 3481 531 
L 3481 0 
L 794 0 
L 794 531 
z
" id="DejaVuSans-31" transform="scale(0.015625)"/>
       </defs>
       <use xlink:href="#DejaVuSans-31"/>
       <use x="63.623047" xlink:href="#DejaVuSans-30"/>
       <use x="127.246094" xlink:href="#DejaVuSans-30"/>
      </g>
     </g>
    </g>
    <g id="ytick_3">
     <g id="line2d_13">
      <g>
       <use style="stroke:#000000;stroke-width:0.8;" x="62.014615" xlink:href="#m7126a805fb" y="493.9253"/>
      </g>
     </g>
     <g id="text_12">
      <!-- 200 -->
      <g transform="translate(28.292115 499.244206)scale(0.14 -0.14)">
       <use xlink:href="#DejaVuSans-32"/>
       <use x="63.623047" xlink:href="#DejaVuSans-30"/>
       <use x="127.246094" xlink:href="#DejaVuSans-30"/>
      </g>
     </g>
    </g>
    <g id="ytick_4">
     <g id="line2d_14">
      <g>
       <use style="stroke:#000000;stroke-width:0.8;" x="62.014615" xlink:href="#m7126a805fb" y="423.032016"/>
      </g>
     </g>
     <g id="text_13">
      <!-- 300 -->
      <g transform="translate(28.292115 428.350922)scale(0.14 -0.14)">
       <use xlink:href="#DejaVuSans-33"/>
       <use x="63.623047" xlink:href="#DejaVuSans-30"/>
       <use x="127.246094" xlink:href="#DejaVuSans-30"/>
      </g>
     </g>
    </g>
    <g id="ytick_5">
     <g id="line2d_15">
      <g>
       <use style="stroke:#000000;stroke-width:0.8;" x="62.014615" xlink:href="#m7126a805fb" y="352.138731"/>
      </g>
     </g>
     <g id="text_14">
      <!-- 400 -->
      <g transform="translate(28.292115 357.457638)scale(0.14 -0.14)">
       <use xlink:href="#DejaVuSans-34"/>
       <use x="63.623047" xlink:href="#DejaVuSans-30"/>
       <use x="127.246094" xlink:href="#DejaVuSans-30"/>
      </g>
     </g>
    </g>
    <g id="ytick_6">
     <g id="line2d_16">
      <g>
       <use style="stroke:#000000;stroke-width:0.8;" x="62.014615" xlink:href="#m7126a805fb" y="281.245447"/>
      </g>
     </g>
     <g id="text_15">
      <!-- 500 -->
      <g transform="translate(28.292115 286.564354)scale(0.14 -0.14)">
       <defs>
        <path d="M 691 4666 
L 3169 4666 
L 3169 4134 
L 1269 4134 
L 1269 2991 
Q 1406 3038 1543 3061 
Q 1681 3084 1819 3084 
Q 2600 3084 3056 2656 
Q 3513 2228 3513 1497 
Q 3513 744 3044 326 
Q 2575 -91 1722 -91 
Q 1428 -91 1123 -41 
Q 819 9 494 109 
L 494 744 
Q 775 591 1075 516 
Q 1375 441 1709 441 
Q 2250 441 2565 725 
Q 2881 1009 2881 1497 
Q 2881 1984 2565 2268 
Q 2250 2553 1709 2553 
Q 1456 2553 1204 2497 
Q 953 2441 691 2322 
L 691 4666 
z
" id="DejaVuSans-35" transform="scale(0.015625)"/>
       </defs>
       <use xlink:href="#DejaVuSans-35"/>
       <use x="63.623047" xlink:href="#DejaVuSans-30"/>
       <use x="127.246094" xlink:href="#DejaVuSans-30"/>
      </g>
     </g>
    </g>
    <g id="ytick_7">
     <g id="line2d_17">
      <g>
       <use style="stroke:#000000;stroke-width:0.8;" x="62.014615" xlink:href="#m7126a805fb" y="210.352163"/>
      </g>
     </g>
     <g id="text_16">
      <!-- 600 -->
      <g transform="translate(28.292115 215.671069)scale(0.14 -0.14)">
       <use xlink:href="#DejaVuSans-36"/>
       <use x="63.623047" xlink:href="#DejaVuSans-30"/>
       <use x="127.246094" xlink:href="#DejaVuSans-30"/>
      </g>
     </g>
    </g>
    <g id="ytick_8">
     <g id="line2d_18">
      <g>
       <use style="stroke:#000000;stroke-width:0.8;" x="62.014615" xlink:href="#m7126a805fb" y="139.458879"/>
      </g>
     </g>
     <g id="text_17">
      <!-- 700 -->
      <g transform="translate(28.292115 144.777785)scale(0.14 -0.14)">
       <use xlink:href="#DejaVuSans-37"/>
       <use x="63.623047" xlink:href="#DejaVuSans-30"/>
       <use x="127.246094" xlink:href="#DejaVuSans-30"/>
      </g>
     </g>
    </g>
    <g id="ytick_9">
     <g id="line2d_19">
      <g>
       <use style="stroke:#000000;stroke-width:0.8;" x="62.014615" xlink:href="#m7126a805fb" y="68.565595"/>
      </g>
     </g>
     <g id="text_18">
      <!-- 800 -->
      <g transform="translate(28.292115 73.884501)scale(0.14 -0.14)">
       <use xlink:href="#DejaVuSans-38"/>
       <use x="63.623047" xlink:href="#DejaVuSans-30"/>
       <use x="127.246094" xlink:href="#DejaVuSans-30"/>
      </g>
     </g>
    </g>
    <g id="text_19">
     <!-- $T_e$ [eV] -->
     <g transform="translate(19.716803 408.032053)rotate(-90)scale(0.22 -0.22)">
      <defs>
       <path d="M 378 4666 
L 4325 4666 
L 4225 4134 
L 2559 4134 
L 1759 0 
L 1125 0 
L 1925 4134 
L 275 4134 
L 378 4666 
z
" id="DejaVuSans-Oblique-54" transform="scale(0.015625)"/>
       <path d="M 3078 2063 
Q 3088 2113 3092 2166 
Q 3097 2219 3097 2272 
Q 3097 2653 2873 2875 
Q 2650 3097 2266 3097 
Q 1838 3097 1509 2826 
Q 1181 2556 1013 2059 
L 3078 2063 
z
M 3578 1613 
L 903 1613 
Q 884 1494 878 1425 
Q 872 1356 872 1306 
Q 872 872 1139 634 
Q 1406 397 1894 397 
Q 2269 397 2603 481 
Q 2938 566 3225 728 
L 3116 159 
Q 2806 34 2476 -28 
Q 2147 -91 1806 -91 
Q 1078 -91 686 257 
Q 294 606 294 1247 
Q 294 1794 489 2264 
Q 684 2734 1063 3103 
Q 1306 3334 1642 3459 
Q 1978 3584 2356 3584 
Q 2950 3584 3301 3228 
Q 3653 2872 3653 2272 
Q 3653 2128 3634 1964 
Q 3616 1800 3578 1613 
z
" id="DejaVuSans-Oblique-65" transform="scale(0.015625)"/>
       <path d="M 1831 0 
L 50 4666 
L 709 4666 
L 2188 738 
L 3669 4666 
L 4325 4666 
L 2547 0 
L 1831 0 
z
" id="DejaVuSans-56" transform="scale(0.015625)"/>
      </defs>
      <use transform="translate(0 0.015625)" xlink:href="#DejaVuSans-Oblique-54"/>
      <use transform="translate(61.083984 -16.390625)scale(0.7)" xlink:href="#DejaVuSans-Oblique-65"/>
      <use transform="translate(106.884766 0.015625)" xlink:href="#DejaVuSans-20"/>
      <use transform="translate(138.671875 0.015625)" xlink:href="#DejaVuSans-5b"/>
      <use transform="translate(177.685547 0.015625)" xlink:href="#DejaVuSans-65"/>
      <use transform="translate(239.208984 0.015625)" xlink:href="#DejaVuSans-56"/>
      <use transform="translate(307.617188 0.015625)" xlink:href="#DejaVuSans-5d"/>
     </g>
    </g>
   </g>
   <g id="line2d_20">
    <path clip-path="url(#p1fcd03733e)" d="M 62.014615 564.818584 
L 673.11226 564.818584 
" style="fill:none;stroke:#000000;stroke-dasharray:11.1,4.8;stroke-dashoffset:0;stroke-width:3;"/>
   </g>
   <g id="patch_3">
    <path d="M 62.014615 671.15851 
L 62.014615 68.565595 
" style="fill:none;stroke:#000000;stroke-linecap:square;stroke-linejoin:miter;stroke-width:0.8;"/>
   </g>
   <g id="patch_4">
    <path d="M 673.11226 671.15851 
L 673.11226 68.565595 
" style="fill:none;stroke:#000000;stroke-linecap:square;stroke-linejoin:miter;stroke-width:0.8;"/>
   </g>
   <g id="patch_5">
    <path d="M 62.014615 671.15851 
L 673.11226 671.15851 
" style="fill:none;stroke:#000000;stroke-linecap:square;stroke-linejoin:miter;stroke-width:0.8;"/>
   </g>
   <g id="patch_6">
    <path d="M 62.014615 68.565595 
L 673.11226 68.565595 
" style="fill:none;stroke:#000000;stroke-linecap:square;stroke-linejoin:miter;stroke-width:0.8;"/>
   </g>
   <g id="legend_1">
    <g id="text_20">
     <!-- $T_e$ -->
     <g transform="translate(161.648791 459.574614)scale(0.22 -0.22)">
      <use transform="translate(0 0.09375)" xlink:href="#DejaVuSans-Oblique-54"/>
      <use transform="translate(61.083984 -16.3125)scale(0.7)" xlink:href="#DejaVuSans-Oblique-65"/>
     </g>
    </g>
    <g id="line2d_21">
     <path d="M 85.338791 478.709927 
L 117.338791 478.709927 
" style="fill:none;stroke:#000000;stroke-dasharray:11.1,4.8;stroke-dashoffset:0;stroke-width:3;"/>
    </g>
    <g id="line2d_22"/>
    <g id="text_21">
     <!-- $T_{e, sep}\approx 100$ [eV] -->
     <g transform="translate(130.138791 484.309927)scale(0.16 -0.16)">
      <defs>
       <path d="M 750 794 
L 1409 794 
L 1409 256 
L 897 -744 
L 494 -744 
L 750 256 
L 750 794 
z
" id="DejaVuSans-2c" transform="scale(0.015625)"/>
       <path d="M 3200 3397 
L 3091 2853 
Q 2863 2978 2609 3040 
Q 2356 3103 2088 3103 
Q 1634 3103 1373 2948 
Q 1113 2794 1113 2528 
Q 1113 2219 1719 2053 
Q 1766 2041 1788 2034 
L 1972 1978 
Q 2547 1819 2739 1644 
Q 2931 1469 2931 1166 
Q 2931 609 2489 259 
Q 2047 -91 1331 -91 
Q 1053 -91 747 -37 
Q 441 16 72 128 
L 184 722 
Q 500 559 806 475 
Q 1113 391 1394 391 
Q 1816 391 2080 572 
Q 2344 753 2344 1031 
Q 2344 1331 1650 1516 
L 1591 1531 
L 1394 1581 
Q 956 1697 753 1886 
Q 550 2075 550 2369 
Q 550 2928 970 3256 
Q 1391 3584 2113 3584 
Q 2397 3584 2667 3537 
Q 2938 3491 3200 3397 
z
" id="DejaVuSans-Oblique-73" transform="scale(0.015625)"/>
       <path d="M 3175 2156 
Q 3175 2616 2975 2859 
Q 2775 3103 2400 3103 
Q 2144 3103 1911 2972 
Q 1678 2841 1497 2591 
Q 1319 2344 1212 1994 
Q 1106 1644 1106 1300 
Q 1106 863 1306 627 
Q 1506 391 1875 391 
Q 2147 391 2380 519 
Q 2613 647 2778 891 
Q 2956 1147 3065 1494 
Q 3175 1841 3175 2156 
z
M 1394 2969 
Q 1625 3272 1939 3428 
Q 2253 3584 2638 3584 
Q 3175 3584 3472 3232 
Q 3769 2881 3769 2247 
Q 3769 1728 3584 1258 
Q 3400 788 3053 416 
Q 2822 169 2531 39 
Q 2241 -91 1919 -91 
Q 1547 -91 1294 64 
Q 1041 219 916 525 
L 556 -1331 
L -19 -1331 
L 922 3500 
L 1497 3500 
L 1394 2969 
z
" id="DejaVuSans-Oblique-70" transform="scale(0.015625)"/>
       <path d="M 4684 1947 
L 4684 1388 
Q 4356 1144 4076 1036 
Q 3797 928 3494 928 
Q 3150 928 2694 1113 
Q 2663 1125 2641 1134 
Q 2622 1141 2575 1159 
Q 2091 1350 1797 1350 
Q 1522 1350 1253 1231 
Q 984 1113 678 850 
L 678 1409 
Q 1006 1653 1286 1761 
Q 1566 1869 1869 1869 
Q 2213 1869 2672 1684 
Q 2706 1669 2722 1663 
Q 2741 1656 2788 1638 
Q 3272 1447 3566 1447 
Q 3834 1447 4098 1564 
Q 4363 1681 4684 1947 
z
M 4684 3163 
L 4684 2606 
Q 4356 2359 4076 2251 
Q 3797 2144 3494 2144 
Q 3150 2144 2694 2328 
Q 2663 2341 2641 2350 
Q 2622 2356 2575 2375 
Q 2091 2566 1797 2566 
Q 1522 2566 1253 2447 
Q 984 2328 678 2069 
L 678 2625 
Q 1006 2869 1286 2976 
Q 1566 3084 1869 3084 
Q 2213 3084 2672 2900 
Q 2703 2888 2719 2881 
Q 2741 2872 2788 2853 
Q 3272 2663 3566 2663 
Q 3834 2663 4098 2780 
Q 4363 2897 4684 3163 
z
" id="DejaVuSans-2248" transform="scale(0.015625)"/>
      </defs>
      <use transform="translate(0 0.015625)" xlink:href="#DejaVuSans-Oblique-54"/>
      <use transform="translate(61.083984 -16.390625)scale(0.7)" xlink:href="#DejaVuSans-Oblique-65"/>
      <use transform="translate(104.150391 -16.390625)scale(0.7)" xlink:href="#DejaVuSans-2c"/>
      <use transform="translate(140.039062 -16.390625)scale(0.7)" xlink:href="#DejaVuSans-Oblique-73"/>
      <use transform="translate(176.508789 -16.390625)scale(0.7)" xlink:href="#DejaVuSans-Oblique-65"/>
      <use transform="translate(219.575195 -16.390625)scale(0.7)" xlink:href="#DejaVuSans-Oblique-70"/>
      <use transform="translate(286.225586 0.015625)" xlink:href="#DejaVuSans-2248"/>
      <use transform="translate(389.49707 0.015625)" xlink:href="#DejaVuSans-31"/>
      <use transform="translate(453.120117 0.015625)" xlink:href="#DejaVuSans-30"/>
      <use transform="translate(516.743164 0.015625)" xlink:href="#DejaVuSans-30"/>
      <use transform="translate(580.366211 0.015625)" xlink:href="#DejaVuSans-20"/>
      <use transform="translate(612.15332 0.015625)" xlink:href="#DejaVuSans-5b"/>
      <use transform="translate(651.166992 0.015625)" xlink:href="#DejaVuSans-65"/>
      <use transform="translate(712.69043 0.015625)" xlink:href="#DejaVuSans-56"/>
      <use transform="translate(781.098633 0.015625)" xlink:href="#DejaVuSans-5d"/>
     </g>
    </g>
    <g id="PathCollection_1">
     <defs>
      <path d="M 0 6.123724 
C 1.624031 6.123724 3.181764 5.47849 4.330127 4.330127 
C 5.47849 3.181764 6.123724 1.624031 6.123724 0 
C 6.123724 -1.624031 5.47849 -3.181764 4.330127 -4.330127 
C 3.181764 -5.47849 1.624031 -6.123724 0 -6.123724 
C -1.624031 -6.123724 -3.181764 -5.47849 -4.330127 -4.330127 
C -5.47849 -3.181764 -6.123724 -1.624031 -6.123724 0 
C -6.123724 1.624031 -5.47849 3.181764 -4.330127 4.330127 
C -3.181764 5.47849 -1.624031 6.123724 0 6.123724 
z
" id="m8db0541e11" style="stroke:#000000;"/>
     </defs>
     <g>
      <use style="fill:#d2b48c;stroke:#000000;" x="101.338791" xlink:href="#m8db0541e11" y="505.227427"/>
     </g>
    </g>
    <g id="text_22">
     <!-- Post ELM -->
     <g transform="translate(130.138791 509.427427)scale(0.16 -0.16)">
      <defs>
       <path d="M 1259 4147 
L 1259 2394 
L 2053 2394 
Q 2494 2394 2734 2622 
Q 2975 2850 2975 3272 
Q 2975 3691 2734 3919 
Q 2494 4147 2053 4147 
L 1259 4147 
z
M 628 4666 
L 2053 4666 
Q 2838 4666 3239 4311 
Q 3641 3956 3641 3272 
Q 3641 2581 3239 2228 
Q 2838 1875 2053 1875 
L 1259 1875 
L 1259 0 
L 628 0 
L 628 4666 
z
" id="DejaVuSans-50" transform="scale(0.015625)"/>
       <path d="M 2834 3397 
L 2834 2853 
Q 2591 2978 2328 3040 
Q 2066 3103 1784 3103 
Q 1356 3103 1142 2972 
Q 928 2841 928 2578 
Q 928 2378 1081 2264 
Q 1234 2150 1697 2047 
L 1894 2003 
Q 2506 1872 2764 1633 
Q 3022 1394 3022 966 
Q 3022 478 2636 193 
Q 2250 -91 1575 -91 
Q 1294 -91 989 -36 
Q 684 19 347 128 
L 347 722 
Q 666 556 975 473 
Q 1284 391 1588 391 
Q 1994 391 2212 530 
Q 2431 669 2431 922 
Q 2431 1156 2273 1281 
Q 2116 1406 1581 1522 
L 1381 1569 
Q 847 1681 609 1914 
Q 372 2147 372 2553 
Q 372 3047 722 3315 
Q 1072 3584 1716 3584 
Q 2034 3584 2315 3537 
Q 2597 3491 2834 3397 
z
" id="DejaVuSans-73" transform="scale(0.015625)"/>
       <path d="M 628 4666 
L 3578 4666 
L 3578 4134 
L 1259 4134 
L 1259 2753 
L 3481 2753 
L 3481 2222 
L 1259 2222 
L 1259 531 
L 3634 531 
L 3634 0 
L 628 0 
L 628 4666 
z
" id="DejaVuSans-45" transform="scale(0.015625)"/>
       <path d="M 628 4666 
L 1569 4666 
L 2759 1491 
L 3956 4666 
L 4897 4666 
L 4897 0 
L 4281 0 
L 4281 4097 
L 3078 897 
L 2444 897 
L 1241 4097 
L 1241 0 
L 628 0 
L 628 4666 
z
" id="DejaVuSans-4d" transform="scale(0.015625)"/>
      </defs>
      <use xlink:href="#DejaVuSans-50"/>
      <use x="56.677734" xlink:href="#DejaVuSans-6f"/>
      <use x="117.859375" xlink:href="#DejaVuSans-73"/>
      <use x="169.958984" xlink:href="#DejaVuSans-74"/>
      <use x="209.167969" xlink:href="#DejaVuSans-20"/>
      <use x="240.955078" xlink:href="#DejaVuSans-45"/>
      <use x="304.138672" xlink:href="#DejaVuSans-4c"/>
      <use x="359.851562" xlink:href="#DejaVuSans-4d"/>
     </g>
    </g>
    <g id="PathCollection_2">
     <defs>
      <path d="M 0 6.123724 
C 1.624031 6.123724 3.181764 5.47849 4.330127 4.330127 
C 5.47849 3.181764 6.123724 1.624031 6.123724 0 
C 6.123724 -1.624031 5.47849 -3.181764 4.330127 -4.330127 
C 3.181764 -5.47849 1.624031 -6.123724 0 -6.123724 
C -1.624031 -6.123724 -3.181764 -5.47849 -4.330127 -4.330127 
C -5.47849 -3.181764 -6.123724 -1.624031 -6.123724 0 
C -6.123724 1.624031 -5.47849 3.181764 -4.330127 4.330127 
C -3.181764 5.47849 -1.624031 6.123724 0 6.123724 
z
" id="mb53d41997d" style="stroke:#000000;"/>
     </defs>
     <g>
      <use style="fill:#ffa500;stroke:#000000;" x="101.338791" xlink:href="#mb53d41997d" y="528.712427"/>
     </g>
    </g>
    <g id="text_23">
     <!-- Pre ELM -->
     <g transform="translate(130.138791 532.912427)scale(0.16 -0.16)">
      <defs>
       <path d="M 2631 2963 
Q 2534 3019 2420 3045 
Q 2306 3072 2169 3072 
Q 1681 3072 1420 2755 
Q 1159 2438 1159 1844 
L 1159 0 
L 581 0 
L 581 3500 
L 1159 3500 
L 1159 2956 
Q 1341 3275 1631 3429 
Q 1922 3584 2338 3584 
Q 2397 3584 2469 3576 
Q 2541 3569 2628 3553 
L 2631 2963 
z
" id="DejaVuSans-72" transform="scale(0.015625)"/>
      </defs>
      <use xlink:href="#DejaVuSans-50"/>
      <use x="58.552734" xlink:href="#DejaVuSans-72"/>
      <use x="97.416016" xlink:href="#DejaVuSans-65"/>
      <use x="158.939453" xlink:href="#DejaVuSans-20"/>
      <use x="190.726562" xlink:href="#DejaVuSans-45"/>
      <use x="253.910156" xlink:href="#DejaVuSans-4c"/>
      <use x="309.623047" xlink:href="#DejaVuSans-4d"/>
     </g>
    </g>
   </g>
   <g id="PathCollection_3">
    <g clip-path="url(#p1fcd03733e)">
     <use style="fill:#d2b48c;stroke:#000000;" x="89.979057" xlink:href="#m8db0541e11" y="326.036663"/>
     <use style="fill:#d2b48c;stroke:#000000;" x="134.126025" xlink:href="#m8db0541e11" y="394.166628"/>
     <use style="fill:#d2b48c;stroke:#000000;" x="163.314701" xlink:href="#m8db0541e11" y="360.339424"/>
     <use style="fill:#d2b48c;stroke:#000000;" x="191.398267" xlink:href="#m8db0541e11" y="353.457488"/>
     <use style="fill:#d2b48c;stroke:#000000;" x="220.963263" xlink:href="#m8db0541e11" y="377.865932"/>
     <use style="fill:#d2b48c;stroke:#000000;" x="249.793287" xlink:href="#m8db0541e11" y="402.359878"/>
     <use style="fill:#d2b48c;stroke:#000000;" x="279.735487" xlink:href="#m8db0541e11" y="413.876553"/>
     <use style="fill:#d2b48c;stroke:#000000;" x="308.573461" xlink:href="#m8db0541e11" y="525.069666"/>
     <use style="fill:#d2b48c;stroke:#000000;" x="337.784221" xlink:href="#m8db0541e11" y="568.751135"/>
     <use style="fill:#d2b48c;stroke:#000000;" x="366.629262" xlink:href="#m8db0541e11" y="604.681304"/>
     <use style="fill:#d2b48c;stroke:#000000;" x="395.84974" xlink:href="#m8db0541e11" y="607.961819"/>
     <use style="fill:#d2b48c;stroke:#000000;" x="425.073751" xlink:href="#m8db0541e11" y="610.703477"/>
     <use style="fill:#d2b48c;stroke:#000000;" x="454.672316" xlink:href="#m8db0541e11" y="635.711868"/>
     <use style="fill:#d2b48c;stroke:#000000;" x="483.906928" xlink:href="#m8db0541e11" y="635.711868"/>
     <use style="fill:#d2b48c;stroke:#000000;" x="513.51521" xlink:href="#m8db0541e11" y="610.414348"/>
     <use style="fill:#d2b48c;stroke:#000000;" x="542.389402" xlink:href="#m8db0541e11" y="635.711868"/>
     <use style="fill:#d2b48c;stroke:#000000;" x="586.637075" xlink:href="#m8db0541e11" y="635.711868"/>
     <use style="fill:#d2b48c;stroke:#000000;" x="645.335094" xlink:href="#m8db0541e11" y="635.711868"/>
    </g>
   </g>
   <g id="PathCollection_4">
    <g clip-path="url(#p1fcd03733e)">
     <use style="fill:#ffa500;stroke:#000000;" x="89.791781" xlink:href="#mb53d41997d" y="214.942573"/>
     <use style="fill:#ffa500;stroke:#000000;" x="133.941398" xlink:href="#mb53d41997d" y="301.579843"/>
     <use style="fill:#ffa500;stroke:#000000;" x="163.130957" xlink:href="#mb53d41997d" y="307.475162"/>
     <use style="fill:#ffa500;stroke:#000000;" x="191.216291" xlink:href="#mb53d41997d" y="286.230391"/>
     <use style="fill:#ffa500;stroke:#000000;" x="220.783054" xlink:href="#mb53d41997d" y="328.141307"/>
     <use style="fill:#ffa500;stroke:#000000;" x="249.61396" xlink:href="#mb53d41997d" y="321.270405"/>
     <use style="fill:#ffa500;stroke:#000000;" x="279.557927" xlink:href="#mb53d41997d" y="383.776179"/>
     <use style="fill:#ffa500;stroke:#000000;" x="308.397668" xlink:href="#mb53d41997d" y="409.464632"/>
     <use style="fill:#ffa500;stroke:#000000;" x="337.609312" xlink:href="#mb53d41997d" y="487.188674"/>
     <use style="fill:#ffa500;stroke:#000000;" x="366.455236" xlink:href="#mb53d41997d" y="561.094317"/>
     <use style="fill:#ffa500;stroke:#000000;" x="395.676597" xlink:href="#mb53d41997d" y="618.384398"/>
     <use style="fill:#ffa500;stroke:#000000;" x="424.901492" xlink:href="#mb53d41997d" y="635.711868"/>
     <use style="fill:#ffa500;stroke:#000000;" x="427.729362" xlink:href="#mb53d41997d" y="-1"/>
     <use style="fill:#ffa500;stroke:#000000;" x="481.023676" xlink:href="#mb53d41997d" y="-1"/>
     <use style="fill:#ffa500;stroke:#000000;" x="483.735552" xlink:href="#mb53d41997d" y="615.323871"/>
     <use style="fill:#ffa500;stroke:#000000;" x="513.345601" xlink:href="#mb53d41997d" y="635.711868"/>
     <use style="fill:#ffa500;stroke:#000000;" x="542.219793" xlink:href="#mb53d41997d" y="635.711868"/>
     <use style="fill:#ffa500;stroke:#000000;" x="586.467466" xlink:href="#mb53d41997d" y="635.711868"/>
     <use style="fill:#ffa500;stroke:#000000;" x="645.166369" xlink:href="#mb53d41997d" y="635.711868"/>
    </g>
   </g>
  </g>
  <g id="axes_2">
   <g id="matplotlib.axis_3">
    <g id="ytick_10">
     <g id="line2d_23">
      <defs>
       <path d="M 0 0 
L 3.5 0 
" id="m7b64a9ff3f" style="stroke:#000000;stroke-width:0.8;"/>
      </defs>
      <g>
       <use style="stroke:#000000;stroke-width:0.8;" x="673.11226" xlink:href="#m7b64a9ff3f" y="643.767923"/>
      </g>
     </g>
     <g id="text_24">
      <!-- 0 -->
      <g transform="translate(680.11226 649.086829)scale(0.14 -0.14)">
       <use xlink:href="#DejaVuSans-30"/>
      </g>
     </g>
    </g>
    <g id="ytick_11">
     <g id="line2d_24">
      <g>
       <use style="stroke:#000000;stroke-width:0.8;" x="673.11226" xlink:href="#m7b64a9ff3f" y="564.064708"/>
      </g>
     </g>
     <g id="text_25">
      <!-- 1 -->
      <g transform="translate(680.11226 569.383614)scale(0.14 -0.14)">
       <use xlink:href="#DejaVuSans-31"/>
      </g>
     </g>
    </g>
    <g id="ytick_12">
     <g id="line2d_25">
      <g>
       <use style="stroke:#000000;stroke-width:0.8;" x="673.11226" xlink:href="#m7b64a9ff3f" y="484.361493"/>
      </g>
     </g>
     <g id="text_26">
      <!-- 2 -->
      <g transform="translate(680.11226 489.680399)scale(0.14 -0.14)">
       <use xlink:href="#DejaVuSans-32"/>
      </g>
     </g>
    </g>
    <g id="ytick_13">
     <g id="line2d_26">
      <g>
       <use style="stroke:#000000;stroke-width:0.8;" x="673.11226" xlink:href="#m7b64a9ff3f" y="404.658277"/>
      </g>
     </g>
     <g id="text_27">
      <!-- 3 -->
      <g transform="translate(680.11226 409.977184)scale(0.14 -0.14)">
       <use xlink:href="#DejaVuSans-33"/>
      </g>
     </g>
    </g>
    <g id="ytick_14">
     <g id="line2d_27">
      <g>
       <use style="stroke:#000000;stroke-width:0.8;" x="673.11226" xlink:href="#m7b64a9ff3f" y="324.955062"/>
      </g>
     </g>
     <g id="text_28">
      <!-- 4 -->
      <g transform="translate(680.11226 330.273968)scale(0.14 -0.14)">
       <use xlink:href="#DejaVuSans-34"/>
      </g>
     </g>
    </g>
    <g id="ytick_15">
     <g id="line2d_28">
      <g>
       <use style="stroke:#000000;stroke-width:0.8;" x="673.11226" xlink:href="#m7b64a9ff3f" y="245.251847"/>
      </g>
     </g>
     <g id="text_29">
      <!-- 5 -->
      <g transform="translate(680.11226 250.570753)scale(0.14 -0.14)">
       <use xlink:href="#DejaVuSans-35"/>
      </g>
     </g>
    </g>
    <g id="ytick_16">
     <g id="line2d_29">
      <g>
       <use style="stroke:#000000;stroke-width:0.8;" x="673.11226" xlink:href="#m7b64a9ff3f" y="165.548632"/>
      </g>
     </g>
     <g id="text_30">
      <!-- 6 -->
      <g transform="translate(680.11226 170.867538)scale(0.14 -0.14)">
       <use xlink:href="#DejaVuSans-36"/>
      </g>
     </g>
    </g>
    <g id="ytick_17">
     <g id="line2d_30">
      <g>
       <use style="stroke:#000000;stroke-width:0.8;" x="673.11226" xlink:href="#m7b64a9ff3f" y="85.845416"/>
      </g>
     </g>
     <g id="text_31">
      <!-- 7 -->
      <g transform="translate(680.11226 91.164323)scale(0.14 -0.14)">
       <use xlink:href="#DejaVuSans-37"/>
      </g>
     </g>
    </g>
    <g id="text_32">
     <!-- $n_e$ [m$^{-3}$] -->
     <g transform="translate(712.424447 416.502052)rotate(-90)scale(0.22 -0.22)">
      <defs>
       <path d="M 3566 2113 
L 3156 0 
L 2578 0 
L 2988 2091 
Q 3016 2238 3031 2350 
Q 3047 2463 3047 2528 
Q 3047 2791 2881 2937 
Q 2716 3084 2419 3084 
Q 1956 3084 1622 2776 
Q 1288 2469 1184 1941 
L 800 0 
L 225 0 
L 903 3500 
L 1478 3500 
L 1363 2950 
Q 1603 3253 1940 3418 
Q 2278 3584 2650 3584 
Q 3113 3584 3367 3334 
Q 3622 3084 3622 2631 
Q 3622 2519 3608 2391 
Q 3594 2263 3566 2113 
z
" id="DejaVuSans-Oblique-6e" transform="scale(0.015625)"/>
       <path d="M 678 2272 
L 4684 2272 
L 4684 1741 
L 678 1741 
L 678 2272 
z
" id="DejaVuSans-2212" transform="scale(0.015625)"/>
      </defs>
      <use transform="translate(0 0.765625)" xlink:href="#DejaVuSans-Oblique-6e"/>
      <use transform="translate(63.378906 -15.640625)scale(0.7)" xlink:href="#DejaVuSans-Oblique-65"/>
      <use transform="translate(109.179688 0.765625)" xlink:href="#DejaVuSans-20"/>
      <use transform="translate(140.966797 0.765625)" xlink:href="#DejaVuSans-5b"/>
      <use transform="translate(179.980469 0.765625)" xlink:href="#DejaVuSans-6d"/>
      <use transform="translate(278.349609 39.046875)scale(0.7)" xlink:href="#DejaVuSans-2212"/>
      <use transform="translate(337.001953 39.046875)scale(0.7)" xlink:href="#DejaVuSans-33"/>
      <use transform="translate(384.272461 0.765625)" xlink:href="#DejaVuSans-5d"/>
     </g>
    </g>
    <g id="text_33">
     <!-- 1e19 -->
     <g transform="translate(637.775385 65.565595)scale(0.14 -0.14)">
      <defs>
       <path d="M 703 97 
L 703 672 
Q 941 559 1184 500 
Q 1428 441 1663 441 
Q 2288 441 2617 861 
Q 2947 1281 2994 2138 
Q 2813 1869 2534 1725 
Q 2256 1581 1919 1581 
Q 1219 1581 811 2004 
Q 403 2428 403 3163 
Q 403 3881 828 4315 
Q 1253 4750 1959 4750 
Q 2769 4750 3195 4129 
Q 3622 3509 3622 2328 
Q 3622 1225 3098 567 
Q 2575 -91 1691 -91 
Q 1453 -91 1209 -44 
Q 966 3 703 97 
z
M 1959 2075 
Q 2384 2075 2632 2365 
Q 2881 2656 2881 3163 
Q 2881 3666 2632 3958 
Q 2384 4250 1959 4250 
Q 1534 4250 1286 3958 
Q 1038 3666 1038 3163 
Q 1038 2656 1286 2365 
Q 1534 2075 1959 2075 
z
" id="DejaVuSans-39" transform="scale(0.015625)"/>
      </defs>
      <use xlink:href="#DejaVuSans-31"/>
      <use x="63.623047" xlink:href="#DejaVuSans-65"/>
      <use x="125.146484" xlink:href="#DejaVuSans-31"/>
      <use x="188.769531" xlink:href="#DejaVuSans-39"/>
     </g>
    </g>
   </g>
   <g id="patch_7">
    <path d="M 62.014615 671.15851 
L 62.014615 68.565595 
" style="fill:none;stroke:#000000;stroke-linecap:square;stroke-linejoin:miter;stroke-width:0.8;"/>
   </g>
   <g id="patch_8">
    <path d="M 673.11226 671.15851 
L 673.11226 68.565595 
" style="fill:none;stroke:#000000;stroke-linecap:square;stroke-linejoin:miter;stroke-width:0.8;"/>
   </g>
   <g id="patch_9">
    <path d="M 62.014615 671.15851 
L 673.11226 671.15851 
" style="fill:none;stroke:#000000;stroke-linecap:square;stroke-linejoin:miter;stroke-width:0.8;"/>
   </g>
   <g id="patch_10">
    <path d="M 62.014615 68.565595 
L 673.11226 68.565595 
" style="fill:none;stroke:#000000;stroke-linecap:square;stroke-linejoin:miter;stroke-width:0.8;"/>
   </g>
   <g id="legend_2">
    <g id="text_34">
     <!-- $n_e$ -->
     <g transform="translate(533.257378 159.941449)scale(0.22 -0.22)">
      <use xlink:href="#DejaVuSans-Oblique-6e"/>
      <use transform="translate(63.378906 -16.40625)scale(0.7)" xlink:href="#DejaVuSans-Oblique-65"/>
     </g>
    </g>
    <g id="PathCollection_5">
     <defs>
      <path d="M 0 6.123724 
C 1.624031 6.123724 3.181764 5.47849 4.330127 4.330127 
C 5.47849 3.181764 6.123724 1.624031 6.123724 0 
C 6.123724 -1.624031 5.47849 -3.181764 4.330127 -4.330127 
C 3.181764 -5.47849 1.624031 -6.123724 0 -6.123724 
C -1.624031 -6.123724 -3.181764 -5.47849 -4.330127 -4.330127 
C -5.47849 -3.181764 -6.123724 -1.624031 -6.123724 0 
C -6.123724 1.624031 -5.47849 3.181764 -4.330127 4.330127 
C -3.181764 5.47849 -1.624031 6.123724 0 6.123724 
z
" id="m1d9f156d15" style="stroke:#000000;"/>
     </defs>
     <g>
      <use style="fill:#b0e0e6;stroke:#000000;" x="478.557378" xlink:href="#m1d9f156d15" y="180.474262"/>
     </g>
    </g>
    <g id="text_35">
     <!-- Post ELM -->
     <g transform="translate(507.357378 184.674262)scale(0.16 -0.16)">
      <use xlink:href="#DejaVuSans-50"/>
      <use x="56.677734" xlink:href="#DejaVuSans-6f"/>
      <use x="117.859375" xlink:href="#DejaVuSans-73"/>
      <use x="169.958984" xlink:href="#DejaVuSans-74"/>
      <use x="209.167969" xlink:href="#DejaVuSans-20"/>
      <use x="240.955078" xlink:href="#DejaVuSans-45"/>
      <use x="304.138672" xlink:href="#DejaVuSans-4c"/>
      <use x="359.851562" xlink:href="#DejaVuSans-4d"/>
     </g>
    </g>
    <g id="PathCollection_6">
     <defs>
      <path d="M 0 6.123724 
C 1.624031 6.123724 3.181764 5.47849 4.330127 4.330127 
C 5.47849 3.181764 6.123724 1.624031 6.123724 0 
C 6.123724 -1.624031 5.47849 -3.181764 4.330127 -4.330127 
C 3.181764 -5.47849 1.624031 -6.123724 0 -6.123724 
C -1.624031 -6.123724 -3.181764 -5.47849 -4.330127 -4.330127 
C -5.47849 -3.181764 -6.123724 -1.624031 -6.123724 0 
C -6.123724 1.624031 -5.47849 3.181764 -4.330127 4.330127 
C -3.181764 5.47849 -1.624031 6.123724 0 6.123724 
z
" id="m46ca592a65" style="stroke:#000000;"/>
     </defs>
     <g>
      <use style="fill:#1e90ff;stroke:#000000;" x="478.557378" xlink:href="#m46ca592a65" y="203.959262"/>
     </g>
    </g>
    <g id="text_36">
     <!-- Pre ELM -->
     <g transform="translate(507.357378 208.159262)scale(0.16 -0.16)">
      <use xlink:href="#DejaVuSans-50"/>
      <use x="58.552734" xlink:href="#DejaVuSans-72"/>
      <use x="97.416016" xlink:href="#DejaVuSans-65"/>
      <use x="158.939453" xlink:href="#DejaVuSans-20"/>
      <use x="190.726562" xlink:href="#DejaVuSans-45"/>
      <use x="253.910156" xlink:href="#DejaVuSans-4c"/>
      <use x="309.623047" xlink:href="#DejaVuSans-4d"/>
     </g>
    </g>
    <g id="PathCollection_7">
     <defs>
      <path d="M -0 12.247449 
L 12.247449 0 
L 0 -12.247449 
L -12.247449 -0 
z
" id="m8f65d5d48c" style="stroke:#000000;"/>
     </defs>
     <g>
      <use style="fill:#b22222;stroke:#000000;" x="478.557378" xlink:href="#m8f65d5d48c" y="227.444262"/>
     </g>
    </g>
    <g id="text_37">
     <!-- Pre-ELM $n_{e, sep}$ -->
     <g transform="translate(507.357378 231.644262)scale(0.16 -0.16)">
      <defs>
       <path d="M 313 2009 
L 1997 2009 
L 1997 1497 
L 313 1497 
L 313 2009 
z
" id="DejaVuSans-2d" transform="scale(0.015625)"/>
      </defs>
      <use transform="translate(0 0.09375)" xlink:href="#DejaVuSans-50"/>
      <use transform="translate(60.302734 0.09375)" xlink:href="#DejaVuSans-72"/>
      <use transform="translate(101.416016 0.09375)" xlink:href="#DejaVuSans-65"/>
      <use transform="translate(162.939453 0.09375)" xlink:href="#DejaVuSans-2d"/>
      <use transform="translate(199.023438 0.09375)" xlink:href="#DejaVuSans-45"/>
      <use transform="translate(262.207031 0.09375)" xlink:href="#DejaVuSans-4c"/>
      <use transform="translate(317.919922 0.09375)" xlink:href="#DejaVuSans-4d"/>
      <use transform="translate(404.199219 0.09375)" xlink:href="#DejaVuSans-20"/>
      <use transform="translate(435.986328 0.09375)" xlink:href="#DejaVuSans-Oblique-6e"/>
      <use transform="translate(499.365234 -16.3125)scale(0.7)" xlink:href="#DejaVuSans-Oblique-65"/>
      <use transform="translate(542.431641 -16.3125)scale(0.7)" xlink:href="#DejaVuSans-2c"/>
      <use transform="translate(578.320312 -16.3125)scale(0.7)" xlink:href="#DejaVuSans-Oblique-73"/>
      <use transform="translate(614.790039 -16.3125)scale(0.7)" xlink:href="#DejaVuSans-Oblique-65"/>
      <use transform="translate(657.856445 -16.3125)scale(0.7)" xlink:href="#DejaVuSans-Oblique-70"/>
     </g>
    </g>
    <g id="PathCollection_8">
     <defs>
      <path d="M -0 12.247449 
L 12.247449 0 
L 0 -12.247449 
L -12.247449 -0 
z
" id="me5183a363b" style="stroke:#000000;"/>
     </defs>
     <g>
      <use style="fill:#fa8072;stroke:#000000;" x="478.557378" xlink:href="#me5183a363b" y="252.561762"/>
     </g>
    </g>
    <g id="text_38">
     <!-- Post-ELM $n_{e, sep}$ -->
     <g transform="translate(507.357378 256.761762)scale(0.16 -0.16)">
      <use transform="translate(0 0.09375)" xlink:href="#DejaVuSans-50"/>
      <use transform="translate(60.302734 0.09375)" xlink:href="#DejaVuSans-6f"/>
      <use transform="translate(121.484375 0.09375)" xlink:href="#DejaVuSans-73"/>
      <use transform="translate(173.583984 0.09375)" xlink:href="#DejaVuSans-74"/>
      <use transform="translate(212.792969 0.09375)" xlink:href="#DejaVuSans-2d"/>
      <use transform="translate(248.876953 0.09375)" xlink:href="#DejaVuSans-45"/>
      <use transform="translate(312.060547 0.09375)" xlink:href="#DejaVuSans-4c"/>
      <use transform="translate(367.773438 0.09375)" xlink:href="#DejaVuSans-4d"/>
      <use transform="translate(454.052734 0.09375)" xlink:href="#DejaVuSans-20"/>
      <use transform="translate(485.839844 0.09375)" xlink:href="#DejaVuSans-Oblique-6e"/>
      <use transform="translate(549.21875 -16.3125)scale(0.7)" xlink:href="#DejaVuSans-Oblique-65"/>
      <use transform="translate(592.285156 -16.3125)scale(0.7)" xlink:href="#DejaVuSans-2c"/>
      <use transform="translate(628.173828 -16.3125)scale(0.7)" xlink:href="#DejaVuSans-Oblique-73"/>
      <use transform="translate(664.643555 -16.3125)scale(0.7)" xlink:href="#DejaVuSans-Oblique-65"/>
      <use transform="translate(707.709961 -16.3125)scale(0.7)" xlink:href="#DejaVuSans-Oblique-70"/>
     </g>
    </g>
   </g>
   <g id="PathCollection_9">
    <g clip-path="url(#p1fcd03733e)">
     <use style="fill:#b0e0e6;stroke:#000000;" x="89.979057" xlink:href="#m1d9f156d15" y="192.423872"/>
     <use style="fill:#b0e0e6;stroke:#000000;" x="134.126025" xlink:href="#m1d9f156d15" y="202.186824"/>
     <use style="fill:#b0e0e6;stroke:#000000;" x="163.314701" xlink:href="#m1d9f156d15" y="220.166957"/>
     <use style="fill:#b0e0e6;stroke:#000000;" x="191.398267" xlink:href="#m1d9f156d15" y="230.75115"/>
     <use style="fill:#b0e0e6;stroke:#000000;" x="220.963263" xlink:href="#m1d9f156d15" y="221.700388"/>
     <use style="fill:#b0e0e6;stroke:#000000;" x="249.793287" xlink:href="#m1d9f156d15" y="249.797551"/>
     <use style="fill:#b0e0e6;stroke:#000000;" x="279.735487" xlink:href="#m1d9f156d15" y="248.592295"/>
     <use style="fill:#b0e0e6;stroke:#000000;" x="308.573461" xlink:href="#m1d9f156d15" y="321.551755"/>
     <use style="fill:#b0e0e6;stroke:#000000;" x="337.784221" xlink:href="#m1d9f156d15" y="414.409039"/>
     <use style="fill:#b0e0e6;stroke:#000000;" x="366.629262" xlink:href="#m1d9f156d15" y="417.025896"/>
     <use style="fill:#b0e0e6;stroke:#000000;" x="395.84974" xlink:href="#m1d9f156d15" y="434.90015"/>
     <use style="fill:#b0e0e6;stroke:#000000;" x="425.073751" xlink:href="#m1d9f156d15" y="464.474851"/>
     <use style="fill:#b0e0e6;stroke:#000000;" x="454.672316" xlink:href="#m1d9f156d15" y="643.767923"/>
     <use style="fill:#b0e0e6;stroke:#000000;" x="483.906928" xlink:href="#m1d9f156d15" y="643.767923"/>
     <use style="fill:#b0e0e6;stroke:#000000;" x="513.51521" xlink:href="#m1d9f156d15" y="551.466488"/>
     <use style="fill:#b0e0e6;stroke:#000000;" x="542.389402" xlink:href="#m1d9f156d15" y="643.767923"/>
     <use style="fill:#b0e0e6;stroke:#000000;" x="586.637075" xlink:href="#m1d9f156d15" y="643.767923"/>
     <use style="fill:#b0e0e6;stroke:#000000;" x="645.335094" xlink:href="#m1d9f156d15" y="643.767923"/>
    </g>
   </g>
   <g id="PathCollection_10">
    <g clip-path="url(#p1fcd03733e)">
     <use style="fill:#1e90ff;stroke:#000000;" x="89.791781" xlink:href="#m46ca592a65" y="114.756085"/>
     <use style="fill:#1e90ff;stroke:#000000;" x="133.941398" xlink:href="#m46ca592a65" y="121.021329"/>
     <use style="fill:#1e90ff;stroke:#000000;" x="163.130957" xlink:href="#m46ca592a65" y="109.344017"/>
     <use style="fill:#1e90ff;stroke:#000000;" x="191.216291" xlink:href="#m46ca592a65" y="139.235201"/>
     <use style="fill:#1e90ff;stroke:#000000;" x="220.783054" xlink:href="#m46ca592a65" y="100.148902"/>
     <use style="fill:#1e90ff;stroke:#000000;" x="249.61396" xlink:href="#m46ca592a65" y="112.380871"/>
     <use style="fill:#1e90ff;stroke:#000000;" x="279.557927" xlink:href="#m46ca592a65" y="95.956182"/>
     <use style="fill:#1e90ff;stroke:#000000;" x="308.397668" xlink:href="#m46ca592a65" y="164.756503"/>
     <use style="fill:#1e90ff;stroke:#000000;" x="337.609312" xlink:href="#m46ca592a65" y="209.621323"/>
     <use style="fill:#1e90ff;stroke:#000000;" x="366.455236" xlink:href="#m46ca592a65" y="341.52158"/>
     <use style="fill:#1e90ff;stroke:#000000;" x="395.676597" xlink:href="#m46ca592a65" y="528.605334"/>
     <use style="fill:#1e90ff;stroke:#000000;" x="424.901492" xlink:href="#m46ca592a65" y="643.767923"/>
     <use style="fill:#1e90ff;stroke:#000000;" x="454.50094" xlink:href="#m46ca592a65" y="561.447211"/>
     <use style="fill:#1e90ff;stroke:#000000;" x="483.735552" xlink:href="#m46ca592a65" y="542.51852"/>
     <use style="fill:#1e90ff;stroke:#000000;" x="513.345601" xlink:href="#m46ca592a65" y="643.767923"/>
     <use style="fill:#1e90ff;stroke:#000000;" x="542.219793" xlink:href="#m46ca592a65" y="643.767923"/>
     <use style="fill:#1e90ff;stroke:#000000;" x="586.467466" xlink:href="#m46ca592a65" y="643.767923"/>
     <use style="fill:#1e90ff;stroke:#000000;" x="645.166369" xlink:href="#m46ca592a65" y="643.767923"/>
    </g>
   </g>
   <g id="PathCollection_11">
    <g clip-path="url(#p1fcd03733e)">
     <use style="fill:#b22222;stroke:#000000;" x="368.354834" xlink:href="#m8f65d5d48c" y="353.683367"/>
    </g>
   </g>
   <g id="PathCollection_12">
    <g clip-path="url(#p1fcd03733e)">
     <use style="fill:#fa8072;stroke:#000000;" x="335.154438" xlink:href="#me5183a363b" y="406.049292"/>
    </g>
   </g>
  </g>
  <g id="text_39">
   <!-- Pulse 81836 -->
   <g transform="translate(292.544219 19.716803)scale(0.22 -0.22)">
    <defs>
     <path d="M 544 1381 
L 544 3500 
L 1119 3500 
L 1119 1403 
Q 1119 906 1312 657 
Q 1506 409 1894 409 
Q 2359 409 2629 706 
Q 2900 1003 2900 1516 
L 2900 3500 
L 3475 3500 
L 3475 0 
L 2900 0 
L 2900 538 
Q 2691 219 2414 64 
Q 2138 -91 1772 -91 
Q 1169 -91 856 284 
Q 544 659 544 1381 
z
M 1991 3584 
L 1991 3584 
z
" id="DejaVuSans-75" transform="scale(0.015625)"/>
     <path d="M 603 4863 
L 1178 4863 
L 1178 0 
L 603 0 
L 603 4863 
z
" id="DejaVuSans-6c" transform="scale(0.015625)"/>
    </defs>
    <use xlink:href="#DejaVuSans-50"/>
    <use x="58.552734" xlink:href="#DejaVuSans-75"/>
    <use x="121.931641" xlink:href="#DejaVuSans-6c"/>
    <use x="149.714844" xlink:href="#DejaVuSans-73"/>
    <use x="201.814453" xlink:href="#DejaVuSans-65"/>
    <use x="263.337891" xlink:href="#DejaVuSans-20"/>
    <use x="295.125" xlink:href="#DejaVuSans-38"/>
    <use x="358.748047" xlink:href="#DejaVuSans-31"/>
    <use x="422.371094" xlink:href="#DejaVuSans-38"/>
    <use x="485.994141" xlink:href="#DejaVuSans-33"/>
    <use x="549.617188" xlink:href="#DejaVuSans-36"/>
   </g>
   <!-- Pre ELM % = 83.4, Post ELM % = 0.662 -->
   <g transform="translate(144.087187 44.35199)scale(0.22 -0.22)">
    <defs>
     <path d="M 4653 2053 
Q 4381 2053 4226 1822 
Q 4072 1591 4072 1178 
Q 4072 772 4226 539 
Q 4381 306 4653 306 
Q 4919 306 5073 539 
Q 5228 772 5228 1178 
Q 5228 1588 5073 1820 
Q 4919 2053 4653 2053 
z
M 4653 2450 
Q 5147 2450 5437 2106 
Q 5728 1763 5728 1178 
Q 5728 594 5436 251 
Q 5144 -91 4653 -91 
Q 4153 -91 3862 251 
Q 3572 594 3572 1178 
Q 3572 1766 3864 2108 
Q 4156 2450 4653 2450 
z
M 1428 4353 
Q 1159 4353 1004 4120 
Q 850 3888 850 3481 
Q 850 3069 1003 2837 
Q 1156 2606 1428 2606 
Q 1700 2606 1854 2837 
Q 2009 3069 2009 3481 
Q 2009 3884 1853 4118 
Q 1697 4353 1428 4353 
z
M 4250 4750 
L 4750 4750 
L 1831 -91 
L 1331 -91 
L 4250 4750 
z
M 1428 4750 
Q 1922 4750 2215 4408 
Q 2509 4066 2509 3481 
Q 2509 2891 2217 2550 
Q 1925 2209 1428 2209 
Q 931 2209 642 2551 
Q 353 2894 353 3481 
Q 353 4063 643 4406 
Q 934 4750 1428 4750 
z
" id="DejaVuSans-25" transform="scale(0.015625)"/>
     <path d="M 678 2906 
L 4684 2906 
L 4684 2381 
L 678 2381 
L 678 2906 
z
M 678 1631 
L 4684 1631 
L 4684 1100 
L 678 1100 
L 678 1631 
z
" id="DejaVuSans-3d" transform="scale(0.015625)"/>
    </defs>
    <use xlink:href="#DejaVuSans-50"/>
    <use x="58.552734" xlink:href="#DejaVuSans-72"/>
    <use x="97.416016" xlink:href="#DejaVuSans-65"/>
    <use x="158.939453" xlink:href="#DejaVuSans-20"/>
    <use x="190.726562" xlink:href="#DejaVuSans-45"/>
    <use x="253.910156" xlink:href="#DejaVuSans-4c"/>
    <use x="309.623047" xlink:href="#DejaVuSans-4d"/>
    <use x="395.902344" xlink:href="#DejaVuSans-20"/>
    <use x="427.689453" xlink:href="#DejaVuSans-25"/>
    <use x="522.708984" xlink:href="#DejaVuSans-20"/>
    <use x="554.496094" xlink:href="#DejaVuSans-3d"/>
    <use x="638.285156" xlink:href="#DejaVuSans-20"/>
    <use x="670.072266" xlink:href="#DejaVuSans-38"/>
    <use x="733.695312" xlink:href="#DejaVuSans-33"/>
    <use x="797.318359" xlink:href="#DejaVuSans-2e"/>
    <use x="829.105469" xlink:href="#DejaVuSans-34"/>
    <use x="892.728516" xlink:href="#DejaVuSans-2c"/>
    <use x="924.515625" xlink:href="#DejaVuSans-20"/>
    <use x="956.302734" xlink:href="#DejaVuSans-50"/>
    <use x="1012.980469" xlink:href="#DejaVuSans-6f"/>
    <use x="1074.162109" xlink:href="#DejaVuSans-73"/>
    <use x="1126.261719" xlink:href="#DejaVuSans-74"/>
    <use x="1165.470703" xlink:href="#DejaVuSans-20"/>
    <use x="1197.257812" xlink:href="#DejaVuSans-45"/>
    <use x="1260.441406" xlink:href="#DejaVuSans-4c"/>
    <use x="1316.154297" xlink:href="#DejaVuSans-4d"/>
    <use x="1402.433594" xlink:href="#DejaVuSans-20"/>
    <use x="1434.220703" xlink:href="#DejaVuSans-25"/>
    <use x="1529.240234" xlink:href="#DejaVuSans-20"/>
    <use x="1561.027344" xlink:href="#DejaVuSans-3d"/>
    <use x="1644.816406" xlink:href="#DejaVuSans-20"/>
    <use x="1676.603516" xlink:href="#DejaVuSans-30"/>
    <use x="1740.226562" xlink:href="#DejaVuSans-2e"/>
    <use x="1772.013672" xlink:href="#DejaVuSans-36"/>
    <use x="1835.636719" xlink:href="#DejaVuSans-36"/>
    <use x="1899.259766" xlink:href="#DejaVuSans-32"/>
   </g>
  </g>
 </g>
 <defs>
  <clipPath id="p1fcd03733e">
   <rect height="602.592915" width="611.097645" x="62.014615" y="68.565595"/>
  </clipPath>
 </defs>
</svg>
